<?xml version="1.0" encoding="UTF-8" standalone="no"?>
<!-- Created with Inkscape (http://www.inkscape.org/) -->

<svg
   xmlns:dc="http://purl.org/dc/elements/1.1/"
   xmlns:cc="http://creativecommons.org/ns#"
   xmlns:rdf="http://www.w3.org/1999/02/22-rdf-syntax-ns#"
   xmlns:svg="http://www.w3.org/2000/svg"
   xmlns="http://www.w3.org/2000/svg"
   xmlns:sodipodi="http://sodipodi.sourceforge.net/DTD/sodipodi-0.dtd"
   xmlns:inkscape="http://www.inkscape.org/namespaces/inkscape"
   id="svg2"
   version="1.1"
   inkscape:version="0.48.4 r9939"
   width="512"
   height="512"
   sodipodi:docname="zz.svg"
   viewBox="0 0 512 512">
  <metadata
     id="metadata8">
    <rdf:RDF>
      <cc:Work
         rdf:about="">
        <dc:format>image/svg+xml</dc:format>
        <dc:type
           rdf:resource="http://purl.org/dc/dcmitype/StillImage" />
        <dc:title></dc:title>
      </cc:Work>
    </rdf:RDF>
  </metadata>
  <defs
     id="defs6">
    <radialGradient
       id="SVGID_1_"
       cx="64.010696"
       cy="75.628899"
       r="56.728001"
       gradientUnits="userSpaceOnUse">
      <stop
         offset="0"
         style="stop-color:#FAFAFA"
         id="stop12" />
      <stop
         offset="0.3109"
         style="stop-color:#F4F4F4"
         id="stop14" />
      <stop
         offset="0.7262"
         style="stop-color:#E3E3E3"
         id="stop16" />
      <stop
         offset="1"
         style="stop-color:#D4D4D4"
         id="stop18" />
    </radialGradient>
    <clipPath
       id="SVGID_3_">
      <ellipse
         ry="50.91"
         rx="61.911999"
         cy="74.632004"
         cx="64.043999"
         id="use34"
         sodipodi:cx="64.043999"
         sodipodi:cy="74.632004"
         sodipodi:rx="61.911999"
         sodipodi:ry="50.91" />
    </clipPath>
    <linearGradient
       id="SVGID_4_"
       gradientUnits="userSpaceOnUse"
       x1="63.549301"
       y1="52.9771"
       x2="63.549301"
       y2="125.5366">
      <stop
         offset="0"
         style="stop-color:#5F5D5C"
         id="stop41" />
      <stop
         offset="1"
         style="stop-color:#181500"
         id="stop43" />
    </linearGradient>
    <linearGradient
       id="SVGID_5_"
       gradientUnits="userSpaceOnUse"
       x1="61.182598"
       y1="40.980499"
       x2="105.0684"
       y2="40.980499">
      <stop
         offset="0"
         style="stop-color:#5F5D5C"
         id="stop54" />
      <stop
         offset="1"
         style="stop-color:#181500"
         id="stop56" />
    </linearGradient>
    <linearGradient
       id="SVGID_6_"
       gradientUnits="userSpaceOnUse"
       x1="19.357401"
       y1="34.075699"
       x2="76.230499"
       y2="34.075699">
      <stop
         offset="0"
         style="stop-color:#5F5D5C"
         id="stop61" />
      <stop
         offset="1"
         style="stop-color:#181500"
         id="stop63" />
    </linearGradient>
    <linearGradient
       id="SVGID_7_"
       gradientUnits="userSpaceOnUse"
       x1="-1366.4292"
       y1="205.5244"
       x2="-1368.2651"
       y2="204.239"
       gradientTransform="matrix(19.8314,3e-4,0,19.8298,27202.607,-4020.8477)">
      <stop
         offset="0"
         style="stop-color:#DEDEDE"
         id="stop70" />
      <stop
         offset="1"
         style="stop-color:#FEFEFE"
         id="stop72" />
    </linearGradient>
    <linearGradient
       id="SVGID_8_"
       gradientUnits="userSpaceOnUse"
       x1="-1255.145"
       y1="89.898399"
       x2="-1256.9137"
       y2="88.659897"
       gradientTransform="matrix(8.5332,0,0,8.5323,10804.849,-721.7168)">
      <stop
         offset="0"
         style="stop-color:#181500"
         id="stop77" />
      <stop
         offset="1"
         style="stop-color:#5F5D5C"
         id="stop79" />
    </linearGradient>
    <linearGradient
       id="SVGID_9_"
       gradientUnits="userSpaceOnUse"
       x1="-1354.7075"
       y1="204.0264"
       x2="-1356.481"
       y2="202.7845"
       gradientTransform="matrix(26.0873,4e-4,0,26.0856,35409.883,-5268.8984)">
      <stop
         offset="0"
         style="stop-color:#DEDEDE"
         id="stop84" />
      <stop
         offset="1"
         style="stop-color:#FEFEFE"
         id="stop86" />
    </linearGradient>
    <linearGradient
       id="SVGID_10_"
       gradientUnits="userSpaceOnUse"
       x1="-1465.1958"
       y1="215.3604"
       x2="-1467.0909"
       y2="214.0334"
       gradientTransform="matrix(7.0558,1e-4,0,7.0552,10392.815,-1477.6125)">
      <stop
         offset="0"
         style="stop-color:#181500"
         id="stop91" />
      <stop
         offset="1"
         style="stop-color:#5F5D5C"
         id="stop93" />
    </linearGradient>
    <linearGradient
       id="SVGID_11_"
       gradientUnits="userSpaceOnUse"
       x1="-1440.4106"
       y1="-251.6787"
       x2="-1442.1793"
       y2="-252.91721"
       gradientTransform="matrix(3.3922,1e-4,0,3.3913,4975.1592,893.8416)">
      <stop
         offset="0"
         style="stop-color:#DEDEDE"
         id="stop98" />
      <stop
         offset="1"
         style="stop-color:#FEFEFE"
         id="stop100" />
    </linearGradient>
    <linearGradient
       id="SVGID_12_"
       gradientUnits="userSpaceOnUse"
       x1="-1907.1318"
       y1="105.3574"
       x2="-1909.0277"
       y2="104.0299"
       gradientTransform="matrix(2.8049,1e-4,0,2.8042,5398.0659,-259.2128)">
      <stop
         offset="0"
         style="stop-color:#DEDEDE"
         id="stop105" />
      <stop
         offset="1"
         style="stop-color:#FEFEFE"
         id="stop107" />
    </linearGradient>
    <linearGradient
       id="SVGID_13_"
       gradientUnits="userSpaceOnUse"
       x1="-324.22021"
       y1="-425.91751"
       x2="-324.22021"
       y2="-472.6636"
       gradientTransform="matrix(1,0,0,-1,370.0342,-413.7783)">
      <stop
         offset="0"
         style="stop-color:#E20A16"
         id="stop116" />
      <stop
         offset="1"
         style="stop-color:#B51015"
         id="stop118" />
    </linearGradient>
    <linearGradient
       id="SVGID_14_"
       gradientUnits="userSpaceOnUse"
       x1="-367.98581"
       y1="882.98242"
       x2="-367.98581"
       y2="932.24609"
       gradientTransform="translate(412.6201,-813.9912)">
      <stop
         offset="0"
         style="stop-color:#E20A16"
         id="stop127" />
      <stop
         offset="1"
         style="stop-color:#B51015"
         id="stop129" />
    </linearGradient>
  </defs>
  <sodipodi:namedview
     pagecolor="#ffffff"
     bordercolor="#666666"
     borderopacity="1"
     objecttolerance="10"
     gridtolerance="10"
     guidetolerance="10"
     inkscape:pageopacity="0"
     inkscape:pageshadow="2"
     inkscape:window-width="1366"
     inkscape:window-height="717"
     id="namedview4"
     showgrid="false"
     inkscape:zoom="0.75682523"
     inkscape:cx="375.97076"
     inkscape:cy="162.34541"
     inkscape:window-x="0"
     inkscape:window-y="0"
     inkscape:window-maximized="1"
     inkscape:current-layer="g5"
     showguides="true"
     inkscape:guide-bbox="true"
     inkscape:document-units="px" />
  <path
     style="fill:#cccccc;fill-opacity:1;fill-rule:evenodd;stroke:none;stroke-width:1.02230215"
     d=""
     id="path3783"
     inkscape:connector-curvature="0" />
  <rect
     style="fill:#1a1a1a"
     id="rect3374"
     width="475"
     height="475"
     x="15"
     y="22"
     rx="89.375351" />
  <g
     transform="matrix(3.0047505,0,0,3.0047505,64.660522,68.586373)"
     id="g3">
    <g
       id="g5">
      <g
         id="g7"
         style="fill:#b3b3b3"
         transform="translate(-0.43974001,0)">
        <g
           id="g9"
           style="fill:#b3b3b3">
          <radialGradient
             id="radialGradient3170"
             cx="64.010696"
             cy="75.628899"
             r="56.728001"
             gradientUnits="userSpaceOnUse">
            <stop
               offset="0"
               style="stop-color:#FAFAFA"
               id="stop3172" />
            <stop
               offset="0.3109"
               style="stop-color:#F4F4F4"
               id="stop3174" />
            <stop
               offset="0.7262"
               style="stop-color:#E3E3E3"
               id="stop3176" />
            <stop
               offset="1"
               style="stop-color:#D4D4D4"
               id="stop3178" />
          </radialGradient>
          <path
             style="fill:#b3b3b3;stroke:#000000;stroke-miterlimit:3.86369990999999979"
             inkscape:connector-curvature="0"
             stroke-miterlimit="3.8637"
             d="M 97.336,31.233 C 97.058,28.919 29.512,19.46 29.524,30.516 29.509,30.961 29.522,31.405 29.518,31.85 12.675,41.045 1.567,56.78 1.567,74.649 c 0,28.355 27.959,51.348 62.443,51.348 34.487,0 62.443,-22.99 62.443,-51.348 C 126.454,56.37 114.829,40.333 97.336,31.233 z"
             id="path20" />
        </g>
      </g>
      <path
         style="fill:none;stroke:#000000;stroke-miterlimit:3.86369991"
         inkscape:connector-curvature="0"
         stroke-miterlimit="3.8637"
         d="m 6.392,56.038 c 0,0 13.878,32.196 57.504,32.196 43.626,0 57.797,-32.202 57.797,-32.202"
         id="path47" />
      <g
         id="g49">
        <g
           id="g51">
          <linearGradient
             id="linearGradient3203"
             gradientUnits="userSpaceOnUse"
             x1="61.182598"
             y1="40.980499"
             x2="105.0684"
             y2="40.980499">
            <stop
               offset="0"
               style="stop-color:#5F5D5C"
               id="stop3205" />
            <stop
               offset="1"
               style="stop-color:#181500"
               id="stop3207" />
          </linearGradient>
          <path
             style="fill:url(#SVGID_5_)"
             inkscape:connector-curvature="0"
             d="M 100.094,61.838 C 95.7,64.037 91.127,64.375 86.352,64.143 83.999,63.954 81.667,63.495 79.409,62.788 72.641,60.651 66.591,56.255 63.042,49.993 61.513,47.37 61.009,44.413 61.235,41.456 62.528,29.518 72.513,19.198 84.696,17.847 c 8.295,-0.844 17.266,4.23 18.762,12.9 0.817,2.828 4.593,27.201 -3.364,31.091 z"
             id="path58" />
          <linearGradient
             id="linearGradient3210"
             gradientUnits="userSpaceOnUse"
             x1="19.357401"
             y1="34.075699"
             x2="76.230499"
             y2="34.075699">
            <stop
               offset="0"
               style="stop-color:#5F5D5C"
               id="stop3212" />
            <stop
               offset="1"
               style="stop-color:#181500"
               id="stop3214" />
          </linearGradient>
          <path
             style="fill:url(#SVGID_6_)"
             inkscape:connector-curvature="0"
             d="m 76.178,37.102 c 0.111,4.652 -1.565,9.172 -3.953,13.197 -1.239,1.922 -2.73,3.676 -4.439,5.229 -1.714,1.543 -3.636,2.881 -5.732,3.971 -9.034,4.684 -19.409,6.694 -29.287,3.684 -3.093,-0.924 -5.813,-2.559 -7.945,-4.729 -2.131,-2.166 -3.675,-4.871 -4.441,-7.967 -0.363,-2.295 -0.651,-4.689 -0.826,-7.139 -0.179,-2.449 -0.241,-4.945 -0.16,-7.441 -0.016,-14.069 7.184,-33.486 23.753,-32.312 2.429,0.138 4.814,0.578 7.133,1.271 2.322,0.691 4.565,1.643 6.717,2.809 8.579,4.791 15.775,12.324 18.598,21.902 0.539,2.422 0.74,4.945 0.582,7.525 z"
             id="path65" />
        </g>
        <g
           id="g67">
          <linearGradient
             id="linearGradient3218"
             gradientUnits="userSpaceOnUse"
             x1="-1366.4292"
             y1="205.5244"
             x2="-1368.2651"
             y2="204.239"
             gradientTransform="matrix(19.8314,3e-4,0,19.8298,27202.607,-4020.8477)">
            <stop
               offset="0"
               style="stop-color:#DEDEDE"
               id="stop3220" />
            <stop
               offset="1"
               style="stop-color:#FEFEFE"
               id="stop3222" />
          </linearGradient>
          <path
             style="fill:#ffffff"
             inkscape:connector-curvature="0"
             d="m 99.151,60.665 c -4.123,2.064 -8.413,2.381 -12.894,2.16 C 84.049,62.649 81.861,62.22 79.741,61.555 73.391,59.551 67.714,55.424 64.384,49.549 62.949,47.088 62.478,44.315 62.69,41.541 63.904,30.34 73.273,20.656 84.703,19.387 c 7.783,-0.789 16.199,3.971 17.602,12.105 0.768,2.655 4.311,25.522 -3.154,29.173 z"
             id="path74" />
          <linearGradient
             id="linearGradient3225"
             gradientUnits="userSpaceOnUse"
             x1="-1255.145"
             y1="89.898399"
             x2="-1256.9137"
             y2="88.659897"
             gradientTransform="matrix(8.5332,0,0,8.5323,10804.849,-721.7168)">
            <stop
               offset="0"
               style="stop-color:#181500"
               id="stop3227" />
            <stop
               offset="1"
               style="stop-color:#5F5D5C"
               id="stop3229" />
          </linearGradient>
          <path
             style="fill:url(#SVGID_8_)"
             inkscape:connector-curvature="0"
             d="m 95.815,39.309 c 0.247,5.539 -3.382,10.172 -8.837,10.34 -5.467,0.184 -10.015,-3.795 -9.856,-8.939 0.181,-5.188 4.655,-9.908 9.744,-10.475 5.025,-0.522 8.749,3.547 8.949,9.074 z"
             id="path81" />
          <linearGradient
             id="linearGradient3232"
             gradientUnits="userSpaceOnUse"
             x1="-1354.7075"
             y1="204.0264"
             x2="-1356.481"
             y2="202.7845"
             gradientTransform="matrix(26.0873,4e-4,0,26.0856,35409.883,-5268.8984)">
            <stop
               offset="0"
               style="stop-color:#DEDEDE"
               id="stop3234" />
            <stop
               offset="1"
               style="stop-color:#FEFEFE"
               id="stop3236" />
          </linearGradient>
          <path
             style="fill:#ffffff"
             inkscape:connector-curvature="0"
             d="m 75.073,37.202 c 0.105,4.412 -1.485,8.697 -3.75,12.518 -1.175,1.822 -2.591,3.488 -4.212,4.961 -1.624,1.463 -3.448,2.73 -5.436,3.766 -8.57,4.443 -18.414,6.35 -27.784,3.492 C 30.957,61.064 28.376,59.515 26.355,57.457 24.334,55.4 22.87,52.834 22.142,49.898 21.796,47.722 21.524,45.449 21.358,43.127 21.189,40.805 21.129,38.436 21.207,36.068 21.191,22.719 28.021,4.302 43.74,5.415 c 2.304,0.132 4.568,0.55 6.768,1.207 2.2,0.656 4.328,1.558 6.37,2.666 8.137,4.541 14.964,11.688 17.643,20.775 0.512,2.295 0.704,4.689 0.552,7.139 z"
             id="path88" />
          <linearGradient
             id="linearGradient3239"
             gradientUnits="userSpaceOnUse"
             x1="-1465.1958"
             y1="215.3604"
             x2="-1467.0909"
             y2="214.0334"
             gradientTransform="matrix(7.0558,1e-4,0,7.0552,10392.815,-1477.6125)">
            <stop
               offset="0"
               style="stop-color:#181500"
               id="stop3241" />
            <stop
               offset="1"
               style="stop-color:#5F5D5C"
               id="stop3243" />
          </linearGradient>
          <path
             style="fill:url(#SVGID_10_)"
             inkscape:connector-curvature="0"
             d="m 55.763,37.473 c 0.203,2.865 -1.381,5.248 -3.769,6.52 -2.695,1.271 -6.188,1.271 -8.569,-0.953 -1.591,-1.666 -2.623,-3.967 -2.817,-6.305 -0.201,-2.334 0.434,-4.707 2.213,-6.447 2.925,-3.004 7.727,-1.828 10.338,1.312 1.54,1.621 2.533,3.715 2.604,5.873 z"
             id="path95" />
          <linearGradient
             id="linearGradient3246"
             gradientUnits="userSpaceOnUse"
             x1="-1440.4106"
             y1="-251.6787"
             x2="-1442.1793"
             y2="-252.91721"
             gradientTransform="matrix(3.3922,1e-4,0,3.3913,4975.1592,893.8416)">
            <stop
               offset="0"
               style="stop-color:#DEDEDE"
               id="stop3248" />
            <stop
               offset="1"
               style="stop-color:#FEFEFE"
               id="stop3250" />
          </linearGradient>
          <path
             style="fill:url(#SVGID_11_)"
             inkscape:connector-curvature="0"
             d="m 89.56,37.797 c 0.099,2.201 -1.345,4.037 -3.516,4.111 -2.17,0.07 -3.974,-1.51 -3.919,-3.559 0.077,-2.059 1.854,-3.932 3.875,-4.158 1.998,-0.206 3.479,1.407 3.56,3.606 z"
             id="path102" />
          <linearGradient
             id="linearGradient3253"
             gradientUnits="userSpaceOnUse"
             x1="-1907.1318"
             y1="105.3574"
             x2="-1909.0277"
             y2="104.0299"
             gradientTransform="matrix(2.8049,1e-4,0,2.8042,5398.0659,-259.2128)">
            <stop
               offset="0"
               style="stop-color:#DEDEDE"
               id="stop3255" />
            <stop
               offset="1"
               style="stop-color:#FEFEFE"
               id="stop3257" />
          </linearGradient>
          <path
             style="fill:url(#SVGID_12_)"
             inkscape:connector-curvature="0"
             d="m 49.204,34.397 c 0.079,1.141 -0.549,2.086 -1.501,2.59 -1.068,0.506 -2.459,0.506 -3.406,-0.379 -0.631,-0.66 -1.039,-1.576 -1.12,-2.506 -0.077,-0.926 0.177,-1.871 0.882,-2.564 1.16,-1.191 3.074,-0.729 4.11,0.525 0.615,0.641 1.006,1.471 1.035,2.334 z"
             id="path109" />
        </g>
        <g
           id="g111">
          <g
             id="g113">
            <linearGradient
               id="linearGradient3262"
               gradientUnits="userSpaceOnUse"
               x1="-324.22021"
               y1="-425.91751"
               x2="-324.22021"
               y2="-472.6636"
               gradientTransform="matrix(1,0,0,-1,370.0342,-413.7783)">
              <stop
                 offset="0"
                 style="stop-color:#E20A16"
                 id="stop3264" />
              <stop
                 offset="1"
                 style="stop-color:#B51015"
                 id="stop3266" />
            </linearGradient>
            <path
               style="fill:url(#SVGID_13_)"
               inkscape:connector-curvature="0"
               d="m 60.354,43.432 c 1.049,-2.051 1.653,-4.367 1.653,-6.83 0,-8.289 -6.723,-15.012 -15.015,-15.012 -3.038,0 -5.86,0.908 -8.224,2.459 L 25.507,12.139 c 0,0 -1.436,1.865 -2.528,4.387 -0.704,1.629 -1.232,3.977 -1.232,3.977 l 11.407,10.262 c -0.76,1.795 -1.179,3.768 -1.179,5.838 0,8.297 6.725,15.018 15.017,15.018 2.635,0 5.108,-0.684 7.262,-1.875 l 10.162,9.141 c 0,0 2.345,-0.77 3.865,-2.627 1.302,-1.76 1.599,-4.348 1.599,-4.348 l -9.526,-8.48 z"
               id="path120" />
          </g>
        </g>
      </g>
    </g>
    <g
       id="g122">
      <g
         id="g124">
        <linearGradient
           id="linearGradient3271"
           gradientUnits="userSpaceOnUse"
           x1="-367.98581"
           y1="882.98242"
           x2="-367.98581"
           y2="932.24609"
           gradientTransform="translate(412.6201,-813.9912)">
          <stop
             offset="0"
             style="stop-color:#E20A16"
             id="stop3273" />
          <stop
             offset="1"
             style="stop-color:#B51015"
             id="stop3275" />
        </linearGradient>
        <path
           style="fill:url(#SVGID_14_)"
           inkscape:connector-curvature="0"
           d="m 44.635,68.991 c -13.604,0 -24.632,11.029 -24.632,24.633 0,13.604 11.028,24.631 24.632,24.631 13.604,0 24.631,-11.027 24.631,-24.631 0,-13.604 -11.028,-24.633 -24.631,-24.633 z m 0,9.321 c 2.555,0 4.961,0.635 7.078,1.744 L 31.067,100.7 c -1.107,-2.117 -1.742,-4.521 -1.742,-7.076 0,-8.457 6.855,-15.312 15.31,-15.312 z m 0,30.621 c -2.556,0 -4.96,-0.633 -7.078,-1.74 L 58.203,86.547 c 1.106,2.119 1.74,4.523 1.74,7.078 0.002,8.452 -6.853,15.308 -15.308,15.308 z"
           id="path131" />
      </g>
    </g>
  </g>
</svg>
