<?xml version="1.0" encoding="UTF-8" standalone="no"?>
<!-- Generator: Adobe Illustrator 13.0.0, SVG Export Plug-In . SVG Version: 6.00 Build 14948)  -->

<svg
   xmlns:dc="http://purl.org/dc/elements/1.1/"
   xmlns:cc="http://creativecommons.org/ns#"
   xmlns:rdf="http://www.w3.org/1999/02/22-rdf-syntax-ns#"
   xmlns:svg="http://www.w3.org/2000/svg"
   xmlns="http://www.w3.org/2000/svg"
   xmlns:sodipodi="http://sodipodi.sourceforge.net/DTD/sodipodi-0.dtd"
   xmlns:inkscape="http://www.inkscape.org/namespaces/inkscape"
   version="1.1"
   id="Layer_1"
   x="0px"
   y="0px"
   width="128px"
   height="128px"
   viewBox="0 0 128 128"
   enable-background="new 0 0 128 128"
   xml:space="preserve"
   inkscape:version="0.48.4 r9939"
   sodipodi:docname="bovo.svg"><metadata
     id="metadata45"><rdf:RDF><cc:Work
         rdf:about=""><dc:format>image/svg+xml</dc:format><dc:type
           rdf:resource="http://purl.org/dc/dcmitype/StillImage" /><dc:title></dc:title></cc:Work></rdf:RDF></metadata><defs
     id="defs43" /><sodipodi:namedview
     pagecolor="#ffffff"
     bordercolor="#666666"
     borderopacity="1"
     objecttolerance="10"
     gridtolerance="10"
     guidetolerance="10"
     inkscape:pageopacity="0"
     inkscape:pageshadow="2"
     inkscape:window-width="758"
     inkscape:window-height="480"
     id="namedview41"
     showgrid="false"
     inkscape:zoom="1.84375"
     inkscape:cx="165.9661"
     inkscape:cy="64"
     inkscape:window-x="0"
     inkscape:window-y="0"
     inkscape:window-maximized="0"
     inkscape:current-layer="g20" /><g
     id="g3"><radialGradient
       id="SVGID_1_"
       cx="63.9746"
       cy="64"
       r="62.0547"
       gradientUnits="userSpaceOnUse"><stop
         offset="0"
         style="stop-color:#FAFAFA"
         id="stop6" /><stop
         offset="0.3109"
         style="stop-color:#F4F4F4"
         id="stop8" /><stop
         offset="0.7262"
         style="stop-color:#E3E3E3"
         id="stop10" /><stop
         offset="1"
         style="stop-color:#D4D4D4"
         id="stop12" /></radialGradient><path
       fill="url(#SVGID_1_)"
       stroke="#B3B3B3"
       stroke-width="2"
       d="M18.855,1.923l90.233,0.006c9.342,0,16.914,7.578,16.914,16.927   l0.006,90.294c0,9.348-7.574,16.926-16.916,16.926l-90.233-0.002c-9.341,0-16.915-7.582-16.915-16.93L1.941,18.85   C1.94,9.502,9.514,1.923,18.855,1.923L18.855,1.923z"
       id="path14"
       style="fill:#1a1a1a;stroke:none" /><g
       id="g20"><g
         id="g22"><g
           id="g24"><linearGradient
             id="SVGID_2_"
             gradientUnits="userSpaceOnUse"
             x1="-348.6196"
             y1="838.5361"
             x2="-348.6196"
             y2="921.4443"
             gradientTransform="matrix(1 0 0 1 412.6201 -813.9912)"><stop
               offset="0"
               style="stop-color:#EC008C"
               id="stop27" /><stop
               offset="1"
               style="stop-color:#C4008C"
               id="stop29" /></linearGradient><path
             fill="url(#SVGID_2_)"
             d="M108.752,81.457H85.209V50.542h23.543c1.588,0,2.877-1.287,2.877-2.875      c0-1.59-1.289-2.877-2.877-2.877H85.209V21.248c0-1.588-1.287-2.875-2.875-2.875c-1.59,0-2.877,1.287-2.877,2.875v23.543H48.542      V21.248c0-1.588-1.287-2.875-2.875-2.875c-1.59,0-2.877,1.287-2.877,2.875v23.543H19.248c-1.588,0-2.875,1.287-2.875,2.877      c0,1.588,1.287,2.875,2.875,2.875h23.543v30.915H19.248c-1.588,0-2.875,1.287-2.875,2.875c0,1.59,1.287,2.877,2.875,2.877      h23.543v23.543c0,1.588,1.287,2.875,2.877,2.875c1.588,0,2.875-1.287,2.875-2.875V87.209h30.915v23.543      c0,1.588,1.287,2.875,2.877,2.875c1.588,0,2.875-1.287,2.875-2.875V87.209h23.543c1.588,0,2.877-1.287,2.877-2.877      C111.629,82.744,110.34,81.457,108.752,81.457z M48.542,81.457V50.542h30.915v30.915H48.542z"
             id="path31" /></g></g><path
         d="M35.818,107.201l-3.684-0.006l-3.188-5.205l-3.236,5.191l-3.662,0.02l5.221-7.77l-5.01-7.441h3.688l3.021,4.957    l2.955-4.953l3.684-0.004l-4.979,7.439L35.818,107.201z"
         id="path33"
         style="fill:#ffffff" /><path
         d="M69.652,73.574l-3.682-0.006l-3.188-5.205l-3.236,5.191l-3.662,0.02l5.219-7.768l-5.01-7.442h3.689l3.021,4.957    l2.954-4.953l3.686-0.004l-4.979,7.438L69.652,73.574z"
         id="path35"
         style="fill:#ffffff" /><path
         d="M104.873,99.58c0,2.781-0.592,4.775-1.771,5.986c-1.182,1.209-2.711,1.812-4.59,1.812c-1.842,0-3.355-0.607-4.547-1.83    c-1.189-1.221-1.783-3.211-1.783-5.971c0-2.762,0.59-4.744,1.771-5.955c1.18-1.209,2.697-1.812,4.559-1.812    c1.863,0,3.385,0.609,4.576,1.83C104.275,94.861,104.873,96.842,104.873,99.58z M101.812,99.58c0-2.08-0.35-3.469-1.051-4.17    c-0.58-0.58-1.33-0.869-2.25-0.869c-0.9,0-1.641,0.289-2.219,0.869c-0.701,0.701-1.051,2.09-1.051,4.17s0.35,3.471,1.051,4.17    c0.6,0.602,1.34,0.9,2.219,0.9c0.9,0,1.65-0.299,2.25-0.9C101.463,103.051,101.812,101.66,101.812,99.58z"
         id="path37"
         style="fill:#ffffff" /><path
         d="M104.873,30.191c0,2.781-0.592,4.775-1.771,5.986c-1.182,1.209-2.711,1.812-4.59,1.812c-1.842,0-3.355-0.609-4.547-1.83    c-1.189-1.219-1.783-3.209-1.783-5.969s0.59-4.744,1.771-5.955c1.18-1.211,2.697-1.814,4.559-1.814    c1.863,0,3.385,0.609,4.576,1.83C104.275,25.472,104.873,27.453,104.873,30.191z M101.812,30.191c0-2.08-0.35-3.469-1.051-4.17    c-0.58-0.58-1.33-0.869-2.25-0.869c-0.9,0-1.641,0.289-2.219,0.869c-0.701,0.701-1.051,2.09-1.051,4.17s0.35,3.471,1.051,4.17    c0.6,0.602,1.34,0.9,2.219,0.9c0.9,0,1.65-0.301,2.25-0.9C101.463,33.662,101.812,32.271,101.812,30.191z"
         id="path39"
         style="fill:#ffffff" /></g></g></svg>