<?xml version="1.0" encoding="UTF-8" standalone="no"?>
<!-- Created with Inkscape (http://www.inkscape.org/) -->

<svg
   xmlns:dc="http://purl.org/dc/elements/1.1/"
   xmlns:cc="http://creativecommons.org/ns#"
   xmlns:rdf="http://www.w3.org/1999/02/22-rdf-syntax-ns#"
   xmlns:svg="http://www.w3.org/2000/svg"
   xmlns="http://www.w3.org/2000/svg"
   xmlns:sodipodi="http://sodipodi.sourceforge.net/DTD/sodipodi-0.dtd"
   xmlns:inkscape="http://www.inkscape.org/namespaces/inkscape"
   id="svg2"
   version="1.1"
   inkscape:version="0.48.4 r9939"
   width="512"
   height="512"
   sodipodi:docname="zzz.svg"
   viewBox="0 0 512 512">
  <metadata
     id="metadata8">
    <rdf:RDF>
      <cc:Work
         rdf:about="">
        <dc:format>image/svg+xml</dc:format>
        <dc:type
           rdf:resource="http://purl.org/dc/dcmitype/StillImage" />
        <dc:title></dc:title>
      </cc:Work>
    </rdf:RDF>
  </metadata>
  <defs
     id="defs6">
    <linearGradient
       id="SVGID_1_"
       gradientUnits="userSpaceOnUse"
       x1="-321.05569"
       y1="861.04791"
       x2="-336.3844"
       y2="850.31458"
       gradientTransform="translate(412.6201,-813.9912)">
      <stop
         offset="0"
         style="stop-color:#FE9840"
         id="stop8" />
      <stop
         offset="1"
         style="stop-color:#FFBF00"
         id="stop10" />
    </linearGradient>
    <radialGradient
       id="SVGID_2_"
       cx="-1782.3105"
       cy="-1683.5908"
       r="5.9959998"
       gradientTransform="matrix(0.7531,0.6579,-0.6579,0.7531,307.3271,2488.376)"
       gradientUnits="userSpaceOnUse">
      <stop
         offset="0"
         style="stop-color:#5F5D5C"
         id="stop15" />
      <stop
         offset="1"
         style="stop-color:#181500"
         id="stop17" />
    </radialGradient>
    <radialGradient
       id="SVGID_3_"
       cx="-369.25781"
       cy="893.85059"
       r="41.607899"
       gradientTransform="translate(412.6201,-813.9912)"
       gradientUnits="userSpaceOnUse">
      <stop
         offset="0"
         style="stop-color:#5F5D5C"
         id="stop22" />
      <stop
         offset="1"
         style="stop-color:#181500"
         id="stop24" />
    </radialGradient>
    <linearGradient
       id="SVGID_4_"
       gradientUnits="userSpaceOnUse"
       x1="-545.71393"
       y1="-1191.3779"
       x2="-467.07571"
       y2="-1136.3151"
       gradientTransform="matrix(-0.9921,0.1258,-0.1258,-0.9921,-566.9821,-1066.1129)">
      <stop
         offset="0"
         style="stop-color:#FBB318"
         id="stop29" />
      <stop
         offset="1"
         style="stop-color:#FFE600"
         id="stop31" />
    </linearGradient>
  </defs>
  <sodipodi:namedview
     pagecolor="#ffffff"
     bordercolor="#666666"
     borderopacity="1"
     objecttolerance="10"
     gridtolerance="10"
     guidetolerance="10"
     inkscape:pageopacity="0"
     inkscape:pageshadow="2"
     inkscape:window-width="1366"
     inkscape:window-height="717"
     id="namedview4"
     showgrid="false"
     inkscape:zoom="0.75682523"
     inkscape:cx="375.97076"
     inkscape:cy="162.34541"
     inkscape:window-x="0"
     inkscape:window-y="0"
     inkscape:window-maximized="1"
     inkscape:current-layer="g5"
     showguides="true"
     inkscape:guide-bbox="true"
     inkscape:document-units="px" />
  <path
     style="fill:#cccccc;fill-opacity:1;fill-rule:evenodd;stroke:none;stroke-width:1.02230215"
     d=""
     id="path3783"
     inkscape:connector-curvature="0" />
  <rect
     style="fill:#1a1a1a"
     id="rect3374"
     width="475"
     height="475"
     x="15"
     y="22"
     rx="89.375351" />
  <path
     sodipodi:type="arc"
     style="fill:#ffffff;fill-opacity:1;stroke:none;stroke-width:10;stroke-linecap:round;stroke-linejoin:round;stroke-miterlimit:4;stroke-opacity:1;stroke-dasharray:none"
     id="path2990"
     sodipodi:cx="268.22574"
     sodipodi:cy="270.86111"
     sodipodi:rx="186.30457"
     sodipodi:ry="192.25046"
     d="m 454.5303,270.86111 a 186.30457,192.25046 0 1 1 -372.609127,0 186.30457,192.25046 0 1 1 372.609127,0 z"
     transform="matrix(1.064994,0,0,1.0330919,-34.148575,-15.569859)" />
  <g
     transform="matrix(2.5542095,0,0,2.5542095,95.820878,119.63813)"
     id="g5">
    <linearGradient
       id="linearGradient3041"
       gradientUnits="userSpaceOnUse"
       x1="-321.05569"
       y1="861.04791"
       x2="-336.3844"
       y2="850.31458"
       gradientTransform="translate(412.6201,-813.9912)">
      <stop
         offset="0"
         style="stop-color:#FE9840"
         id="stop3043" />
      <stop
         offset="1"
         style="stop-color:#FFBF00"
         id="stop3045" />
    </linearGradient>
    <path
       style="fill:#ffcc00"
       inkscape:connector-curvature="0"
       d="m 69.176,46.405 c 5.708,-5.939 9.688,-7.029 16.77,-6.803 7.082,0.23 6.674,-3.396 7.633,-6.395 1.545,-4.838 6.953,-2.519 5.875,0.56 -1.06,3.021 -2.773,8.547 -7.994,9.231 -5.603,0.738 -8.434,-1.318 -14.067,3.478 -2.55,2.169 -3.196,9.351 -3.196,9.351 l -4.789,-8.513"
       id="path12" />
    <radialGradient
       id="radialGradient3048"
       cx="-1782.3105"
       cy="-1683.5908"
       r="5.9959998"
       gradientTransform="matrix(0.7531,0.6579,-0.6579,0.7531,307.3271,2488.376)"
       gradientUnits="userSpaceOnUse">
      <stop
         offset="0"
         style="stop-color:#5F5D5C"
         id="stop3050" />
      <stop
         offset="1"
         style="stop-color:#181500"
         id="stop3052" />
    </radialGradient>
    <path
       style="fill:#1a1a1a"
       inkscape:connector-curvature="0"
       d="m 78.289,52.766 c -1.489,1.708 -4.086,1.882 -5.795,0.39 L 67.509,48.8 c -1.708,-1.491 -1.884,-4.086 -0.392,-5.797 l 0,0 c 1.494,-1.709 4.088,-1.883 5.799,-0.389 l 4.983,4.354 c 1.71,1.492 1.884,4.088 0.39,5.798 l 0,0 z"
       id="path19" />
    <radialGradient
       id="radialGradient3055"
       cx="-369.25781"
       cy="893.85059"
       r="41.607899"
       gradientTransform="translate(412.6201,-813.9912)"
       gradientUnits="userSpaceOnUse">
      <stop
         offset="0"
         style="stop-color:#5F5D5C"
         id="stop3057" />
      <stop
         offset="1"
         style="stop-color:#181500"
         id="stop3059" />
    </radialGradient>
    <path
       style="fill:#1a1a1a"
       inkscape:connector-curvature="0"
       d="m 84.97,79.861 c 0,22.977 -18.63,41.605 -41.608,41.605 -22.978,0 -41.607,-18.628 -41.607,-41.605 0,-22.981 18.628,-41.61 41.606,-41.61 22.978,0 41.609,18.629 41.609,41.61 z"
       id="path26" />
    <linearGradient
       id="linearGradient3062"
       gradientUnits="userSpaceOnUse"
       x1="-545.71393"
       y1="-1191.3779"
       x2="-467.07571"
       y2="-1136.3151"
       gradientTransform="matrix(-0.9921,0.1258,-0.1258,-0.9921,-566.9821,-1066.1129)">
      <stop
         offset="0"
         style="stop-color:#FBB318"
         id="stop3064" />
      <stop
         offset="1"
         style="stop-color:#FFE600"
         id="stop3066" />
    </linearGradient>
    <path
       style="fill:#ffcc00"
       inkscape:connector-curvature="0"
       d="m 76.035374,35.513774 c 15.489,-5.637 16.392,-8.824 5.287,-20.942 14.795,7.163 17.588,5.389 18.548,-11.068 5.638996,15.489 8.821996,16.389 20.942996,5.287 -7.164,14.793 -5.39,17.586 11.067,18.547 -15.489,5.639 -16.39,8.822 -5.286,20.942 -14.795,-7.163 -17.588,-5.386 -18.551,11.069 -5.638,-15.489 -8.819996,-16.391 -20.942996,-5.291 7.164,-14.792 5.392,-17.581 -11.065,-18.544 z"
       id="path33" />
  </g>
</svg>
