<?xml version="1.0" encoding="UTF-8" standalone="no"?>
<!-- Created with Inkscape (http://www.inkscape.org/) -->

<svg
   xmlns:dc="http://purl.org/dc/elements/1.1/"
   xmlns:cc="http://creativecommons.org/ns#"
   xmlns:rdf="http://www.w3.org/1999/02/22-rdf-syntax-ns#"
   xmlns:svg="http://www.w3.org/2000/svg"
   xmlns="http://www.w3.org/2000/svg"
   xmlns:sodipodi="http://sodipodi.sourceforge.net/DTD/sodipodi-0.dtd"
   xmlns:inkscape="http://www.inkscape.org/namespaces/inkscape"
   id="svg2"
   version="1.1"
   inkscape:version="0.48.4 r9939"
   width="512"
   height="512"
   sodipodi:docname="_usr_share_ddm_logo.svg"
   viewBox="0 0 512 512">
  <metadata
     id="metadata8">
    <rdf:RDF>
      <cc:Work
         rdf:about="">
        <dc:format>image/svg+xml</dc:format>
        <dc:type
           rdf:resource="http://purl.org/dc/dcmitype/StillImage" />
        <dc:title></dc:title>
      </cc:Work>
    </rdf:RDF>
  </metadata>
  <defs
     id="defs6" />
  <sodipodi:namedview
     pagecolor="#ffffff"
     bordercolor="#666666"
     borderopacity="1"
     objecttolerance="10"
     gridtolerance="10"
     guidetolerance="10"
     inkscape:pageopacity="0"
     inkscape:pageshadow="2"
     inkscape:window-width="1366"
     inkscape:window-height="717"
     id="namedview4"
     showgrid="false"
     inkscape:zoom="0.75682523"
     inkscape:cx="375.97076"
     inkscape:cy="268.05013"
     inkscape:window-x="0"
     inkscape:window-y="0"
     inkscape:window-maximized="1"
     inkscape:current-layer="svg2"
     showguides="true"
     inkscape:guide-bbox="true"
     inkscape:document-units="px" />
  <path
     style="fill:#cccccc;fill-opacity:1;fill-rule:evenodd;stroke:none;stroke-width:1.02230215"
     d=""
     id="path3783"
     inkscape:connector-curvature="0" />
  <rect
     style="fill:#1a1a1a"
     id="rect3374"
     width="475"
     height="475"
     x="15"
     y="22"
     rx="89.375351" />
  <rect
     y="363.21817"
     x="356.93677"
     height="70.157562"
     width="70.157562"
     id="rect4145-7-4-7-3"
     style="opacity:0.2;fill:#3ecdf6;fill-opacity:1;fill-rule:evenodd;stroke:none" />
  <rect
     y="363.21817"
     x="286.71463"
     height="70.157562"
     width="70.157562"
     id="rect4145-7-4-7-3-2"
     style="opacity:0.4;fill:#3ecdf6;fill-opacity:1;fill-rule:evenodd;stroke:none" />
  <rect
     y="363.21817"
     x="217.44028"
     height="70.157562"
     width="70.157562"
     id="rect4145-7-4-7-3-8"
     style="opacity:0.6;fill:#3ecdf6;fill-opacity:1;fill-rule:evenodd;stroke:none" />
  <rect
     y="363.21817"
     x="147.66188"
     height="70.157562"
     width="70.157562"
     id="rect4145-7-4-7-3-8-0"
     style="opacity:0.8;fill:#3ecdf6;fill-opacity:1;fill-rule:evenodd;stroke:none" />
  <rect
     transform="matrix(0.8568537,-0.51555963,0.51555963,0.8568537,0,0)"
     y="364.1514"
     x="134.5789"
     height="70.157562"
     width="70.157562"
     id="rect4145-7-4-7-3-6"
     style="opacity:0.2;fill:#8e44ad;fill-opacity:1;fill-rule:evenodd;stroke:none" />
  <path
     inkscape:connector-curvature="0"
     id="rect4145-7-4-77-9"
     d="m 149.77712,363.21768 -35.75345,0 -1.31234,0 -4.41317,0 0,0.31209 c -16.965424,2.15846 -30.007931,16.54254 -30.007931,34.113 l 0,1.31233 c 0,17.57046 13.042507,31.95055 30.007931,34.10903 l 0,0.31207 4.41317,0 1.31234,0 35.75345,0 z"
     style="fill:#3ecdf6;fill-opacity:1;fill-rule:evenodd;stroke:none" />
  <rect
     transform="matrix(0.8568537,-0.51555963,0.51555963,0.8568537,0,0)"
     y="364.1514"
     x="64.356743"
     height="70.157562"
     width="70.157562"
     id="rect4145-7-4-7-3-2-4"
     style="opacity:0.4;fill:#8e44ad;fill-opacity:1;fill-rule:evenodd;stroke:none" />
  <rect
     y="83.537003"
     x="77.149788"
     height="70.157562"
     width="70.157562"
     id="rect4145"
     style="opacity:0.2;fill:#ffc831;fill-opacity:1;fill-rule:evenodd;stroke:none" />
  <rect
     transform="matrix(0.8568537,-0.51555963,0.51555963,0.8568537,0,0)"
     y="364.1514"
     x="-4.9176216"
     height="70.157562"
     width="70.157562"
     id="rect4145-7-4-7-3-8-4"
     style="opacity:0.6;fill:#8e44ad;fill-opacity:1;fill-rule:evenodd;stroke:none" />
  <rect
     transform="matrix(0.50188391,-0.86493499,0.86493499,0.50188391,0,0)"
     y="262.90021"
     x="-43.285248"
     height="70.157562"
     width="70.157562"
     id="rect4145-7-4-7-3-6-8"
     style="opacity:0.2;fill:#f64747;fill-opacity:1;fill-rule:evenodd;stroke:none" />
  <rect
     y="153.49098"
     x="77.149788"
     height="70.157562"
     width="70.157562"
     id="rect4145-7"
     style="opacity:0.4;fill:#ffc831;fill-opacity:1;fill-rule:evenodd;stroke:none" />
  <rect
     transform="matrix(0.50188391,-0.86493499,0.86493499,0.50188391,0,0)"
     y="262.90021"
     x="-113.50739"
     height="70.157562"
     width="70.157562"
     id="rect4145-7-4-7-3-2-4-0"
     style="opacity:0.4;fill:#f64747;fill-opacity:1;fill-rule:evenodd;stroke:none" />
  <rect
     transform="matrix(0.8568537,-0.51555963,0.51555963,0.8568537,0,0)"
     y="364.1514"
     x="-74.69603"
     height="70.157562"
     width="70.157562"
     id="rect4145-7-4-7-3-8-0-9"
     style="opacity:0.8;fill:#8e44ad;fill-opacity:1;fill-rule:evenodd;stroke:none" />
  <rect
     transform="matrix(0.50188391,-0.86493499,0.86493499,0.50188391,0,0)"
     y="262.90021"
     x="-182.78181"
     height="70.157562"
     width="70.157562"
     id="rect4145-7-4-7-3-8-4-4"
     style="opacity:0.6;fill:#f64747;fill-opacity:1;fill-rule:evenodd;stroke:none" />
  <rect
     transform="matrix(0.50188391,-0.86493499,0.86493499,0.50188391,0,0)"
     y="262.90021"
     x="-252.56021"
     height="70.157562"
     width="70.157562"
     id="rect4145-7-4-7-3-8-0-9-3"
     style="opacity:0.8;fill:#f64747;fill-opacity:1;fill-rule:evenodd;stroke:none" />
  <rect
     y="223.54153"
     x="77.149788"
     height="70.157562"
     width="70.157562"
     id="rect4145-7-4"
     style="opacity:0.6;fill:#ffc831;fill-opacity:1;fill-rule:evenodd;stroke:none" />
  <path
     inkscape:connector-curvature="0"
     id="rect4145-7-4-77-9-7"
     d="m 125.55039,349.44373 -30.635485,18.43304 -1.124464,0.6766 -3.781443,2.27524 0.16081,0.26743 C 76.74576,381.69222 72.986093,400.74146 82.0447,415.79678 l 0.676593,1.12447 c 9.058628,15.05532 27.647927,20.65276 43.297637,13.75558 l 0.16101,0.26739 3.78143,-2.27525 1.12448,-0.67662 30.63549,-18.43304 z"
     style="fill:#8e44ad;fill-opacity:1;fill-rule:evenodd;stroke:none" />
  <path
     inkscape:connector-curvature="0"
     id="rect4145-7-4-77-9-7-3"
     d="m 101.69688,348.5637 -17.944077,30.92443 -0.658627,1.13507 -2.214902,3.81711 0.269853,0.15672 c -6.64772,15.75727 -0.752244,34.25731 14.445041,43.07567 l 1.135097,0.65863 c 15.197305,8.81833 34.180975,4.75456 44.562575,-8.83614 l 0.27004,0.15651 2.21488,-3.81709 0.65863,-1.13512 17.94409,-30.9244 z"
     style="fill:#f64747;fill-opacity:1;fill-rule:evenodd;stroke:none" />
  <rect
     y="293.09912"
     x="77.149788"
     height="70.157562"
     width="70.157562"
     id="rect4145-7-4-7"
     style="opacity:0.8;fill:#ffc831;fill-opacity:1;fill-rule:evenodd;stroke:none" />
  <path
     inkscape:connector-curvature="0"
     id="rect4145-7-4-77"
     d="m 77.149181,361.7071 0,35.75344 0,1.31234 0,4.41318 0.312084,0 c 2.158479,16.96542 16.542554,30.00793 34.113005,30.00793 l 1.31235,0 c 17.57046,0 31.95053,-13.04251 34.10902,-30.00793 l 0.31208,0 0,-4.41318 0,-1.31234 0,-35.75344 z"
     style="fill:#ffc831;fill-opacity:1;fill-rule:evenodd;stroke:none" />
  <path
     inkscape:connector-curvature="0"
     d="m 126.85021,402.77887 a 15.56236,15.56236 0 0 1 -19.93791,9.29787 15.56236,15.56236 0 0 1 -9.314478,-19.93014 15.56236,15.56236 0 0 1 19.922378,-9.33109 15.56236,15.56236 0 0 1 9.34769,19.91459"
     id="path4326"
     style="fill:#ffffff;fill-opacity:1;fill-rule:evenodd;stroke:none" />
</svg>
