<?xml version="1.0" encoding="UTF-8" standalone="no"?>
<!-- Created with Inkscape (http://www.inkscape.org/) -->

<svg
   xmlns:dc="http://purl.org/dc/elements/1.1/"
   xmlns:cc="http://creativecommons.org/ns#"
   xmlns:rdf="http://www.w3.org/1999/02/22-rdf-syntax-ns#"
   xmlns:svg="http://www.w3.org/2000/svg"
   xmlns="http://www.w3.org/2000/svg"
   xmlns:sodipodi="http://sodipodi.sourceforge.net/DTD/sodipodi-0.dtd"
   xmlns:inkscape="http://www.inkscape.org/namespaces/inkscape"
   id="svg2"
   version="1.1"
   inkscape:version="0.48.4 r9939"
   width="512"
   height="512"
   sodipodi:docname="zzz.svg"
   viewBox="0 0 512 512">
  <metadata
     id="metadata8">
    <rdf:RDF>
      <cc:Work
         rdf:about="">
        <dc:format>image/svg+xml</dc:format>
        <dc:type
           rdf:resource="http://purl.org/dc/dcmitype/StillImage" />
        <dc:title></dc:title>
      </cc:Work>
    </rdf:RDF>
  </metadata>
  <defs
     id="defs6">
    <linearGradient
       id="SVGID_1_"
       gradientUnits="userSpaceOnUse"
       x1="46.591301"
       y1="39.172401"
       x2="46.591301"
       y2="111.2324">
      <stop
         offset="0"
         style="stop-color:#ECEEF0"
         id="stop12" />
      <stop
         offset="0.2485"
         style="stop-color:#E8E8E9"
         id="stop14" />
      <stop
         offset="0.8"
         style="stop-color:#DADBDE"
         id="stop16" />
      <stop
         offset="0.9481"
         style="stop-color:#C0C1C2"
         id="stop18" />
    </linearGradient>
    <linearGradient
       id="SVGID_2_"
       gradientUnits="userSpaceOnUse"
       x1="62.293499"
       y1="53.251999"
       x2="62.293499"
       y2="96.371597">
      <stop
         offset="0"
         style="stop-color:#5F5D5C"
         id="stop27" />
      <stop
         offset="1"
         style="stop-color:#181500"
         id="stop29" />
    </linearGradient>
    <linearGradient
       id="SVGID_3_"
       gradientUnits="userSpaceOnUse"
       x1="59.701698"
       y1="54.5508"
       x2="59.701698"
       y2="69.162102">
      <stop
         offset="0"
         style="stop-color:#FFFFFF"
         id="stop40" />
      <stop
         offset="1"
         style="stop-color:#000000"
         id="stop42" />
    </linearGradient>
    <linearGradient
       id="SVGID_4_"
       gradientUnits="userSpaceOnUse"
       x1="-576.36133"
       y1="463.65619"
       x2="-587.7771"
       y2="441.00729"
       gradientTransform="matrix(0.893,-0.4501,-0.4501,-0.893,812.9097,203.1463)">
      <stop
         offset="0"
         style="stop-color:#5F5D5C"
         id="stop49" />
      <stop
         offset="1"
         style="stop-color:#181500"
         id="stop51" />
    </linearGradient>
    <linearGradient
       id="SVGID_5_"
       gradientUnits="userSpaceOnUse"
       x1="-562.13672"
       y1="472.1387"
       x2="-582.2431"
       y2="432.24741"
       gradientTransform="matrix(0.893,-0.4501,-0.4501,-0.893,812.9097,203.1463)">
      <stop
         offset="0"
         style="stop-color:#5F5D5C"
         id="stop56" />
      <stop
         offset="1"
         style="stop-color:#181500"
         id="stop58" />
    </linearGradient>
    <linearGradient
       id="SVGID_6_"
       gradientUnits="userSpaceOnUse"
       x1="-548.8999"
       y1="479.69339"
       x2="-576.76813"
       y2="424.4025"
       gradientTransform="matrix(0.893,-0.4501,-0.4501,-0.893,812.9097,203.1463)">
      <stop
         offset="0"
         style="stop-color:#5F5D5C"
         id="stop63" />
      <stop
         offset="1"
         style="stop-color:#181500"
         id="stop65" />
    </linearGradient>
    <linearGradient
       id="SVGID_7_"
       gradientUnits="userSpaceOnUse"
       x1="-375.63919"
       y1="879.9043"
       x2="-412.26419"
       y2="854.25922"
       gradientTransform="translate(412.6201,-813.9912)">
      <stop
         offset="0"
         style="stop-color:#FF1F00"
         id="stop72" />
      <stop
         offset="1"
         style="stop-color:#FF9D00"
         id="stop74" />
    </linearGradient>
    <linearGradient
       id="SVGID_8_"
       gradientUnits="userSpaceOnUse"
       x1="-7308.5557"
       y1="2420.6621"
       x2="-7295.6577"
       y2="2429.6934"
       gradientTransform="matrix(-1,0,0,-1,-7283.0684,2464.5703)">
      <stop
         offset="0"
         style="stop-color:#181500"
         id="stop83" />
      <stop
         offset="1"
         style="stop-color:#5F5D5C"
         id="stop85" />
    </linearGradient>
    <linearGradient
       id="SVGID_9_"
       gradientUnits="userSpaceOnUse"
       x1="-379.21091"
       y1="830.25983"
       x2="-379.21091"
       y2="903.90228"
       gradientTransform="translate(412.6201,-813.9912)">
      <stop
         offset="0"
         style="stop-color:#FF1F00"
         id="stop92" />
      <stop
         offset="1"
         style="stop-color:#FF9D00"
         id="stop94" />
    </linearGradient>
    <linearGradient
       id="SVGID_10_"
       gradientUnits="userSpaceOnUse"
       x1="-7323.2988"
       y1="2385.292"
       x2="-7310.3989"
       y2="2394.3247"
       gradientTransform="matrix(-1,0,0,-1,-7283.0684,2464.5703)">
      <stop
         offset="0"
         style="stop-color:#181500"
         id="stop103" />
      <stop
         offset="1"
         style="stop-color:#5F5D5C"
         id="stop105" />
    </linearGradient>
  </defs>
  <sodipodi:namedview
     pagecolor="#ffffff"
     bordercolor="#666666"
     borderopacity="1"
     objecttolerance="10"
     gridtolerance="10"
     guidetolerance="10"
     inkscape:pageopacity="0"
     inkscape:pageshadow="2"
     inkscape:window-width="1366"
     inkscape:window-height="717"
     id="namedview4"
     showgrid="false"
     inkscape:zoom="0.75682523"
     inkscape:cx="375.97076"
     inkscape:cy="162.34541"
     inkscape:window-x="0"
     inkscape:window-y="0"
     inkscape:window-maximized="1"
     inkscape:current-layer="g7"
     showguides="true"
     inkscape:guide-bbox="true"
     inkscape:document-units="px" />
  <path
     style="fill:#cccccc;fill-opacity:1;fill-rule:evenodd;stroke:none;stroke-width:1.02230215"
     d=""
     id="path3783"
     inkscape:connector-curvature="0" />
  <rect
     style="fill:#1a1a1a"
     id="rect3374"
     width="475"
     height="475"
     x="15"
     y="22"
     rx="89.375351" />
  <path
     sodipodi:type="arc"
     style="fill:#ffffff;fill-opacity:1;stroke:none;stroke-width:10;stroke-linecap:round;stroke-linejoin:round;stroke-miterlimit:4;stroke-opacity:1;stroke-dasharray:none"
     id="path2990"
     sodipodi:cx="268.22574"
     sodipodi:cy="270.86111"
     sodipodi:rx="186.30457"
     sodipodi:ry="192.25046"
     d="m 454.5303,270.86111 a 186.30457,192.25046 0 1 1 -372.609127,0 186.30457,192.25046 0 1 1 372.609127,0 z"
     transform="matrix(1.064994,0,0,1.0330919,-34.148575,-15.569859)" />
  <g
     transform="matrix(2.7439558,0,0,2.7439558,82.453632,62.873169)"
     id="g3">
    <g
       id="g5">
      <g
         id="g7">
        <path
           style="fill:none"
           inkscape:connector-curvature="0"
           d="m 50.916,40.968 c 5.96,-3.168 22.512,5.984 31.554,23.002 9.042,17.012 7.149,35.448 1.186,38.62 C 77.696,105.76 63.97,95.637 54.928,78.623 45.89,61.605 44.955,44.14 50.916,40.968 l 0,0 z"
           id="path9" />
        <linearGradient
           id="linearGradient3136"
           gradientUnits="userSpaceOnUse"
           x1="46.591301"
           y1="39.172401"
           x2="46.591301"
           y2="111.2324">
          <stop
             offset="0"
             style="stop-color:#ECEEF0"
             id="stop3138" />
          <stop
             offset="0.2485"
             style="stop-color:#E8E8E9"
             id="stop3140" />
          <stop
             offset="0.8"
             style="stop-color:#DADBDE"
             id="stop3142" />
          <stop
             offset="0.9481"
             style="stop-color:#C0C1C2"
             id="stop3144" />
        </linearGradient>
        <path
           style="fill:#ffffff;stroke:#000000;stroke-miterlimit:3.86369990999999979"
           inkscape:connector-curvature="0"
           stroke-miterlimit="3.8637"
           d="M 82.99,63.156 C 82.08,61.413 81.097,59.75 80.062,58.166 75.936,51.875 70.588,46.135 63.978,42.457 60.156,40.328 55.565,38.281 51.132,39.578 c -1.467,0.428 -2.889,1.246 -4.047,2.33 -2.572,2.423 -3.98,6.016 -5.705,9.186 -1.51,2.772 -3.041,5.544 -4.57,8.304 l -10.377,18.81 -15.66,8.109 c -0.426,0.227 -0.83,0.463 -1.217,0.727 0,0 -0.055,0.027 -0.049,0.033 -5.498,3.691 -7.488,10.932 -4.398,16.84 0.041,0.07 0.08,0.133 0.117,0.203 0.037,0.064 0.061,0.135 0.098,0.205 3.094,5.914 10.169,8.408 16.334,5.994 0,0.006 0.053,-0.02 0.053,-0.02 0.436,-0.174 0.863,-0.367 1.287,-0.59 l 15.59,-8.246 21.357,2.197 c 3.143,0.324 6.288,0.643 9.431,0.982 3.581,0.393 7.333,1.279 10.79,0.545 1.547,-0.33 2.99,-0.996 4.221,-1.994 3.59,-2.906 4.533,-7.844 4.963,-12.195 0.753,-7.533 -0.913,-15.209 -3.723,-22.186 -0.71,-1.752 -1.512,-3.51 -2.426,-5.252 -0.033,-0.068 -0.072,-0.135 -0.106,-0.203 -0.038,-0.066 -0.068,-0.131 -0.105,-0.201 l 0,0 z"
           id="path20" />
        <linearGradient
           id="linearGradient3149"
           gradientUnits="userSpaceOnUse"
           x1="62.293499"
           y1="53.251999"
           x2="62.293499"
           y2="96.371597">
          <stop
             offset="0"
             style="stop-color:#5F5D5C"
             id="stop3151" />
          <stop
             offset="1"
             style="stop-color:#181500"
             id="stop3153" />
        </linearGradient>
        <path
           style="fill:#1a1a1a"
           inkscape:connector-curvature="0"
           d="M 71.508,69.576 C 65.52,58.117 56.371,51.082 51.066,53.857 c -1.113,0.588 -2.602,2.076 -2.779,3.782 -0.631,6.083 2.068,13.115 6.405,20.742 4.358,7.666 8.909,13.41 13.872,17.621 1.074,0.912 3.072,-0.08 4.189,-0.662 5.3,-2.774 4.745,-14.309 -1.245,-25.764 l 0,0 z"
           id="path31" />
        <path
           style="fill:#ffffff"
           inkscape:connector-curvature="0"
           d="m 68.426,71.189 c 2.711,5.18 3.018,10.371 0.687,11.59 -2.331,1.223 -6.417,-1.99 -9.124,-7.174 -2.708,-5.182 -3.018,-10.371 -0.687,-11.592 2.331,-1.219 6.42,1.995 9.124,7.176 l 0,0 z"
           id="path33" />
        <path
           style="fill:none;stroke:#000000;stroke-miterlimit:3.86369991"
           inkscape:connector-curvature="0"
           stroke-miterlimit="3.8637"
           d="m 50.916,40.968 c 5.96,-3.168 22.512,5.984 31.554,23.002 9.042,17.012 7.149,35.448 1.186,38.62 C 77.696,105.76 63.97,95.637 54.928,78.623 45.89,61.605 44.955,44.14 50.916,40.968 l 0,0 z"
           id="path37" />
        <linearGradient
           id="linearGradient3159"
           gradientUnits="userSpaceOnUse"
           x1="59.701698"
           y1="54.5508"
           x2="59.701698"
           y2="69.162102">
          <stop
             offset="0"
             style="stop-color:#FFFFFF"
             id="stop3161" />
          <stop
             offset="1"
             style="stop-color:#000000"
             id="stop3163" />
        </linearGradient>
      </g>
      <g
         id="g46"
         style="fill:#1a1a1a">
        <linearGradient
           id="linearGradient3167"
           gradientUnits="userSpaceOnUse"
           x1="-576.36133"
           y1="463.65619"
           x2="-587.7771"
           y2="441.00729"
           gradientTransform="matrix(0.893,-0.4501,-0.4501,-0.893,812.9097,203.1463)">
          <stop
             offset="0"
             style="stop-color:#5F5D5C"
             id="stop3169" />
          <stop
             offset="1"
             style="stop-color:#181500"
             id="stop3171" />
        </linearGradient>
        <path
           style="fill:#1a1a1a"
           inkscape:connector-curvature="0"
           d="m 85.76,48.815 c -1.611,-0.817 -3.502,0.147 -4.064,1.865 -0.588,1.767 0.465,3.577 2.058,4.546 4.913,2.979 7.697,8.562 7.112,14.286 -0.193,1.812 0.711,3.639 2.444,4.207 1.7,0.559 3.602,-0.34 3.905,-2.104 1.59,-9.266 -3.076,-18.543 -11.455,-22.8 z"
           id="path53" />
        <linearGradient
           id="linearGradient3174"
           gradientUnits="userSpaceOnUse"
           x1="-562.13672"
           y1="472.1387"
           x2="-582.2431"
           y2="432.24741"
           gradientTransform="matrix(0.893,-0.4501,-0.4501,-0.893,812.9097,203.1463)">
          <stop
             offset="0"
             style="stop-color:#5F5D5C"
             id="stop3176" />
          <stop
             offset="1"
             style="stop-color:#181500"
             id="stop3178" />
        </linearGradient>
        <path
           style="fill:#1a1a1a"
           inkscape:connector-curvature="0"
           d="m 89.691,34.808 c -1.791,-0.784 -3.812,0.248 -4.418,2.107 -0.611,1.838 0.314,3.819 2.072,4.631 12.506,5.773 19.434,19.465 16.684,32.952 -0.392,1.932 0.598,3.924 2.466,4.539 1.862,0.611 3.894,-0.404 4.328,-2.318 3.906,-17.193 -4.987,-34.827 -21.132,-41.911 z"
           id="path60" />
        <linearGradient
           id="linearGradient3181"
           gradientUnits="userSpaceOnUse"
           x1="-548.8999"
           y1="479.69339"
           x2="-576.76813"
           y2="424.4025"
           gradientTransform="matrix(0.893,-0.4501,-0.4501,-0.893,812.9097,203.1463)">
          <stop
             offset="0"
             style="stop-color:#5F5D5C"
             id="stop3183" />
          <stop
             offset="1"
             style="stop-color:#181500"
             id="stop3185" />
        </linearGradient>
        <path
           style="fill:#1a1a1a"
           inkscape:connector-curvature="0"
           d="m 93.463,22.082 c -1.826,-0.744 -3.854,0.291 -4.469,2.16 -0.625,1.893 0.435,3.893 2.264,4.664 19.465,8.252 30.166,29.441 25.25,49.991 -0.466,1.963 0.472,4.049 2.389,4.68 1.865,0.615 3.906,-0.402 4.393,-2.316 6.198,-24.363 -6.554,-49.666 -29.827,-59.179 z"
           id="path67" />
      </g>
    </g>
    <g
       id="g69">
      <linearGradient
         id="linearGradient3189"
         gradientUnits="userSpaceOnUse"
         x1="-375.63919"
         y1="879.9043"
         x2="-412.26419"
         y2="854.25922"
         gradientTransform="translate(412.6201,-813.9912)">
        <stop
           offset="0"
           style="stop-color:#FF1F00"
           id="stop3191" />
        <stop
           offset="1"
           style="stop-color:#FF9D00"
           id="stop3193" />
      </linearGradient>
      <path
         style="fill:#ff6600"
         inkscape:connector-curvature="0"
         d="m 21.566,87.012 c 0,1.6 -1.299,2.898 -2.898,2.898 l 0,0 c -1.602,0 -2.898,-1.301 -2.898,-2.898 V 19.167 c 0,-1.602 1.297,-2.898 2.898,-2.898 l 0,0 c 1.602,0 2.898,1.297 2.898,2.898 v 67.845 z"
         id="path76" />
      <g
         id="g78"
         style="fill:#1a1a1a">
        <g
           id="g80"
           style="fill:#1a1a1a">
          <linearGradient
             id="linearGradient3198"
             gradientUnits="userSpaceOnUse"
             x1="-7308.5557"
             y1="2420.6621"
             x2="-7295.6577"
             y2="2429.6934"
             gradientTransform="matrix(-1,0,0,-1,-7283.0684,2464.5703)">
            <stop
               offset="0"
               style="stop-color:#181500"
               id="stop3200" />
            <stop
               offset="1"
               style="stop-color:#5F5D5C"
               id="stop3202" />
          </linearGradient>
          <path
             style="fill:#1a1a1a"
             inkscape:connector-curvature="0"
             d="m 24.55,36.052 h -9.065 c -0.172,0 -0.336,0.02 -0.491,0.053 -0.134,0.021 -0.257,0.059 -0.375,0.108 -0.017,0.007 -0.033,0.013 -0.05,0.021 -0.045,0.021 -0.098,0.033 -0.141,0.06 l -4.887,3.067 c -0.477,0.299 -0.477,0.783 0,1.082 l 4.887,3.068 c 0.041,0.026 0.094,0.037 0.139,0.059 0.018,0.007 0.035,0.015 0.052,0.021 0.12,0.052 0.245,0.089 0.381,0.11 0.153,0.031 0.313,0.052 0.483,0.052 h 9.066 c 0.885,0 1.602,-0.448 1.602,-1.004 V 37.057 C 26.15,36.501 25.436,36.052 24.55,36.052 z"
             id="path87" />
        </g>
      </g>
    </g>
    <g
       id="g89">
      <linearGradient
         id="linearGradient3206"
         gradientUnits="userSpaceOnUse"
         x1="-379.21091"
         y1="830.25983"
         x2="-379.21091"
         y2="903.90228"
         gradientTransform="translate(412.6201,-813.9912)">
        <stop
           offset="0"
           style="stop-color:#FF1F00"
           id="stop3208" />
        <stop
           offset="1"
           style="stop-color:#FF9D00"
           id="stop3210" />
      </linearGradient>
      <path
         style="fill:#ff6600"
         inkscape:connector-curvature="0"
         d="m 36.309,87.012 c 0,1.6 -1.299,2.898 -2.898,2.898 l 0,0 c -1.602,0 -2.9,-1.301 -2.9,-2.898 V 19.167 c 0,-1.602 1.299,-2.898 2.9,-2.898 l 0,0 c 1.601,0 2.898,1.297 2.898,2.898 v 67.845 z"
         id="path96" />
      <g
         id="g98"
         style="fill:#1a1a1a">
        <g
           id="g100"
           style="fill:#1a1a1a">
          <linearGradient
             id="linearGradient3215"
             gradientUnits="userSpaceOnUse"
             x1="-7323.2988"
             y1="2385.292"
             x2="-7310.3989"
             y2="2394.3247"
             gradientTransform="matrix(-1,0,0,-1,-7283.0684,2464.5703)">
            <stop
               offset="0"
               style="stop-color:#181500"
               id="stop3217" />
            <stop
               offset="1"
               style="stop-color:#5F5D5C"
               id="stop3219" />
          </linearGradient>
          <path
             style="fill:#1a1a1a"
             inkscape:connector-curvature="0"
             d="m 39.29,71.42 h -9.065 c -0.168,0 -0.328,0.02 -0.48,0.051 -0.141,0.021 -0.268,0.061 -0.391,0.111 -0.014,0.006 -0.027,0.012 -0.041,0.018 -0.047,0.021 -0.102,0.033 -0.144,0.062 l -4.887,3.066 c -0.478,0.299 -0.478,0.785 0,1.084 l 4.887,3.068 c 0.042,0.025 0.097,0.037 0.144,0.059 0.014,0.006 0.026,0.014 0.041,0.02 0.123,0.053 0.25,0.092 0.391,0.111 0.152,0.029 0.312,0.053 0.48,0.053 h 9.065 c 0.885,0 1.603,-0.449 1.603,-1.004 v -5.693 c 0,-0.557 -0.718,-1.006 -1.603,-1.006 z"
             id="path107" />
        </g>
      </g>
    </g>
  </g>
</svg>
