<?xml version="1.0" encoding="UTF-8" standalone="no"?>
<!-- Created with Inkscape (http://www.inkscape.org/) -->

<svg
   xmlns:dc="http://purl.org/dc/elements/1.1/"
   xmlns:cc="http://creativecommons.org/ns#"
   xmlns:rdf="http://www.w3.org/1999/02/22-rdf-syntax-ns#"
   xmlns:svg="http://www.w3.org/2000/svg"
   xmlns="http://www.w3.org/2000/svg"
   xmlns:sodipodi="http://sodipodi.sourceforge.net/DTD/sodipodi-0.dtd"
   xmlns:inkscape="http://www.inkscape.org/namespaces/inkscape"
   width="512"
   height="512"
   viewBox="0 0 512 512"
   id="svg2"
   version="1.1"
   inkscape:version="0.48.5 r10040"
   sodipodi:docname="folder-template.svg"
   inkscape:export-filename="E:\Usuarios\David\Desktop\folder-download.png"
   inkscape:export-xdpi="90"
   inkscape:export-ydpi="90">
  <defs
     id="defs4" />
  <sodipodi:namedview
     id="base"
     pagecolor="#ffffff"
     bordercolor="#666666"
     borderopacity="1.0"
     inkscape:pageopacity="0.0"
     inkscape:pageshadow="2"
     inkscape:zoom="0.49497475"
     inkscape:cx="363.93023"
     inkscape:cy="373.25176"
     inkscape:document-units="px"
     inkscape:current-layer="g4172"
     showgrid="true"
     inkscape:snap-bbox="true"
     inkscape:bbox-nodes="true"
     fit-margin-top="0"
     fit-margin-left="0"
     fit-margin-right="0"
     fit-margin-bottom="0"
     units="px"
     inkscape:object-nodes="true"
     inkscape:snap-nodes="true"
     inkscape:snap-others="false"
     inkscape:window-width="1366"
     inkscape:window-height="702"
     inkscape:window-x="0"
     inkscape:window-y="27"
     inkscape:window-maximized="1"
     showguides="true"
     inkscape:guide-bbox="true">
    <inkscape:grid
       type="xygrid"
       id="grid4136"
       originx="-282.28082"
       originy="-341.501"
       visible="true" />
  </sodipodi:namedview>
  <metadata
     id="metadata7">
    <rdf:RDF>
      <cc:Work
         rdf:about="">
        <dc:format>image/svg+xml</dc:format>
        <dc:type
           rdf:resource="http://purl.org/dc/dcmitype/StillImage" />
        <dc:title />
      </cc:Work>
    </rdf:RDF>
  </metadata>
  <g
     inkscape:label="Capa 1"
     inkscape:groupmode="layer"
     id="layer1"
     transform="translate(-282.28082,-198.8612)">
    <g
       id="g4172"
       transform="matrix(2.460733,0,0,2.460733,-533.36734,-915.42835)">
      <path
         inkscape:connector-curvature="0"
         transform="translate(282.28082,403.66119)"
         id="rect4151"
         d="m 65.71875,84.701172 c -4.431995,0 -7.707738,0.02486 -7.707738,0.02486 l 0,17.880848 -0.292262,111.09429 0,0.0488 c 0,4.4051 8.826304,7.52074 8.826304,7.52074 l 0,0 61.173696,0.43043 113.57098,-0.43043 c 4.40506,-0.0167 7.43354,-3.11564 7.42902,-7.52074 l -0.11412,-111.14309 c -0.005,-4.405091 0,-7.721275 0,-7.721275 l -112.97447,2e-6 0,-2.031915 c 0,-4.431995 0,-8.127662 0,-8.127662 l -69.911408,-0.02489 z"
         style="fill:#006680;fill-opacity:1;stroke:none"
         sodipodi:nodetypes="ccccssccsssccsccc" />
      <path
         sodipodi:nodetypes="cccccc"
         inkscape:connector-curvature="0"
         id="rect4166"
         d="m 347.99512,522.17497 14.81747,-14.81277 160.18741,1e-5 0,49.7153 -175.00488,0 z"
         style="fill:#ffffff;fill-opacity:1;stroke:none" />
      <path
         sodipodi:nodetypes="cccc"
         inkscape:connector-curvature="0"
         id="rect4169"
         d="m 362.81277,507.3622 0,14.81277 -14.81277,0 z"
         style="fill:#000000;fill-opacity:0.1372549;stroke:none" />
      <path
         sodipodi:nodetypes="ccsccccccccc"
         inkscape:connector-curvature="0"
         id="rect4156"
         transform="translate(282.28082,403.66119)"
         d="m 143.75782,109.51539 c -38.60638,0 -69.60406,0.16309 -87.37234,0 l 0,106.06596 c 0,3.87801 0,5.68936 0,5.68936 l 81.2766,0 101.59574,0 10.15957,0 0,-6.09574 0,-2.03192 0,-83.30851 c 0,-8.12766 0,-20.31915 0,-20.31915 z"
         style="fill:#3daee9;fill-opacity:1;stroke:none" />
      <path
         style="font-size:medium;font-style:normal;font-variant:normal;font-weight:normal;font-stretch:normal;text-indent:0;text-align:start;text-decoration:none;line-height:normal;letter-spacing:normal;word-spacing:normal;text-transform:none;direction:ltr;block-progression:tb;writing-mode:lr-tb;text-anchor:start;baseline-shift:baseline;color:#000000;fill:#ffffff;fill-opacity:1;fill-rule:nonzero;stroke:none;stroke-width:8.30000019;marker:none;visibility:visible;display:inline;overflow:visible;enable-background:accumulate;font-family:Sans;-inkscape-font-specification:Sans"
         d="m 421.64034,542.28702 0,1.76161 0,4.93499 -7.10944,0 0,1.76161 0,9.86169 7.57699,0 0,-10.74291 25.71285,0 13.31195,13.31113 0,25.18229 7.57616,0 0,-26.75158 0,-1.56927 -17.74955,-17.74956 z m -7.10944,22.90505 0,1.76161 0,9.86832 7.57699,0 0,-11.62993 z m 0,16.90979 0,1.7616 0,5.02452 -6.77866,0 0,7.57036 6.77866,0 0,6.78613 7.57036,0 0,-6.78613 6.78613,0 0,-7.57036 -6.78613,0 0,-6.78612 z m 19.64297,6.78612 0,1.76161 0,5.81538 11.62993,0 0,-7.57699 z m 16.21509,0 0,1.76161 0,5.81538 11.62329,0 0,-7.57699 z"
         id="path143"
         inkscape:connector-curvature="0"
         sodipodi:nodetypes="cccccccccccccccccccccccccccccccccccccccccccccccc" />
    </g>
  </g>
</svg>
