<?xml version="1.0" encoding="UTF-8" standalone="no"?>
<!-- Created with Inkscape (http://www.inkscape.org/) -->

<svg
   xmlns:dc="http://purl.org/dc/elements/1.1/"
   xmlns:cc="http://creativecommons.org/ns#"
   xmlns:rdf="http://www.w3.org/1999/02/22-rdf-syntax-ns#"
   xmlns:svg="http://www.w3.org/2000/svg"
   xmlns="http://www.w3.org/2000/svg"
   xmlns:sodipodi="http://sodipodi.sourceforge.net/DTD/sodipodi-0.dtd"
   xmlns:inkscape="http://www.inkscape.org/namespaces/inkscape"
   id="svg2"
   version="1.1"
   inkscape:version="0.48.4 r9939"
   width="512"
   height="512"
   sodipodi:docname="xx.svg"
   viewBox="0 0 512 512">
  <metadata
     id="metadata8">
    <rdf:RDF>
      <cc:Work
         rdf:about="">
        <dc:format>image/svg+xml</dc:format>
        <dc:type
           rdf:resource="http://purl.org/dc/dcmitype/StillImage" />
        <dc:title></dc:title>
      </cc:Work>
    </rdf:RDF>
  </metadata>
  <defs
     id="defs6" />
  <sodipodi:namedview
     pagecolor="#ffffff"
     bordercolor="#666666"
     borderopacity="1"
     objecttolerance="10"
     gridtolerance="10"
     guidetolerance="10"
     inkscape:pageopacity="0"
     inkscape:pageshadow="2"
     inkscape:window-width="1366"
     inkscape:window-height="717"
     id="namedview4"
     showgrid="false"
     inkscape:zoom="0.75682523"
     inkscape:cx="375.97076"
     inkscape:cy="162.34541"
     inkscape:window-x="0"
     inkscape:window-y="0"
     inkscape:window-maximized="1"
     inkscape:current-layer="svg2"
     showguides="true"
     inkscape:guide-bbox="true"
     inkscape:document-units="px" />
  <path
     style="fill:#cccccc;fill-opacity:1;fill-rule:evenodd;stroke:none;stroke-width:1.02230215"
     d=""
     id="path3783"
     inkscape:connector-curvature="0" />
  <rect
     style="fill:#1a1a1a"
     id="rect3374"
     width="475"
     height="475"
     x="15"
     y="22"
     rx="89.375351" />
  <path
     sodipodi:type="arc"
     style="fill:#ffffff;fill-opacity:1;stroke:none;stroke-width:10;stroke-linecap:round;stroke-linejoin:round;stroke-miterlimit:4;stroke-opacity:1;stroke-dasharray:none"
     id="path2990"
     sodipodi:cx="268.22574"
     sodipodi:cy="270.86111"
     sodipodi:rx="186.30457"
     sodipodi:ry="192.25046"
     d="m 454.5303,270.86111 a 186.30457,192.25046 0 1 1 -372.609127,0 186.30457,192.25046 0 1 1 372.609127,0 z"
     transform="matrix(1.064994,0,0,1.0330919,-34.148575,-15.569859)" />
  <path
     inkscape:connector-curvature="0"
     id="path3026"
     d="m 221.46801,431.09255 c -14.48387,-2.03743 -30.66587,-5.74135 -40.74222,-9.32551 -21.08007,-7.4982 -38.36378,-19.69917 -44.03923,-31.08831 -2.81926,-5.65753 -2.92751,-6.61982 -2.92751,-26.02366 0,-11.26772 0.45144,-20.14891 1.02419,-20.14891 0.56331,0 2.33816,2.24213 3.94414,4.98252 14.83271,25.31011 67.60514,42.12902 125.18045,39.8958 53.27797,-2.06653 95.5218,-18.09967 107.06269,-40.63434 1.5142,-2.95664 3.23073,-5.37571 3.81449,-5.37571 1.92371,0 2.57915,7.81855 2.06901,24.68037 -0.45634,15.08326 -0.7731,17.15353 -3.41026,22.28867 -9.20392,17.9222 -35.7028,31.77978 -74.94366,39.19178 -16.41964,3.10142 -59.81808,3.97877 -77.03209,1.5573 z m 6.2245,-55.03344 c -34.95648,-3.51179 -67.34339,-15.43846 -82.60892,-30.42122 -10.07208,-9.88554 -10.69872,-11.87976 -11.11304,-35.36652 -0.23829,-13.50726 0.035,-20.08818 0.83459,-20.08818 0.65393,0 2.45638,2.00768 4.00541,4.46152 9.83199,15.57489 35.46344,28.6112 68.96389,35.0755 66.79312,12.8885 144.94972,-4.27619 162.70262,-35.73259 1.88348,-3.33734 3.85397,-6.06789 4.37887,-6.06789 1.72324,0 2.52166,10.13708 2.00298,25.43065 -0.45746,13.48871 -0.82704,15.68502 -3.58936,21.33098 -14.2447,29.11513 -80.41799,47.92374 -145.57704,41.37775 z m 3.39518,-55.44861 c -44.84616,-3.96184 -83.00971,-20.67947 -93.68596,-41.03931 -2.85525,-5.44507 -3.06467,-6.87871 -3.43961,-23.548 -0.48798,-21.6947 0.23915,-23.76515 5.47866,-15.60008 9.52941,14.85031 31.94083,26.26363 64.39413,32.7936 71.20827,14.3279 150.86504,-3.24612 168.04113,-37.07356 1.02718,-2.02297 2.28457,-3.67812 2.79421,-3.67812 1.43992,0 2.47945,30.5353 1.28861,37.85204 -5.41176,33.2512 -72.83383,56.65742 -144.87117,50.29343 z m 5.53811,-55.44091 c -46.65761,-2.96651 -89.21098,-21.13564 -99.06584,-42.29845 -13.50319,-28.99741 27.27103,-57.31019 92.26138,-64.06443 18.29249,-1.90107 53.75061,-0.76573 69.81049,2.23529 18.86109,3.52445 31.39343,7.47195 45.45305,14.31701 20.60097,10.02979 30.86407,22.0001 30.86407,35.99812 0,33.3787 -65.11897,58.53039 -139.32315,53.81246 z"
     style="fill:#007ac3;fill-opacity:1" />
</svg>
