<?xml version="1.0" encoding="UTF-8" standalone="no"?>
<!-- Created with Inkscape (http://www.inkscape.org/) -->

<svg
   xmlns:dc="http://purl.org/dc/elements/1.1/"
   xmlns:cc="http://creativecommons.org/ns#"
   xmlns:rdf="http://www.w3.org/1999/02/22-rdf-syntax-ns#"
   xmlns:svg="http://www.w3.org/2000/svg"
   xmlns="http://www.w3.org/2000/svg"
   xmlns:sodipodi="http://sodipodi.sourceforge.net/DTD/sodipodi-0.dtd"
   xmlns:inkscape="http://www.inkscape.org/namespaces/inkscape"
   id="svg2"
   version="1.1"
   inkscape:version="0.48.4 r9939"
   width="512"
   height="512"
   sodipodi:docname="zzz.svg"
   viewBox="0 0 512 512">
  <metadata
     id="metadata8">
    <rdf:RDF>
      <cc:Work
         rdf:about="">
        <dc:format>image/svg+xml</dc:format>
        <dc:type
           rdf:resource="http://purl.org/dc/dcmitype/StillImage" />
        <dc:title></dc:title>
      </cc:Work>
    </rdf:RDF>
  </metadata>
  <defs
     id="defs6">
    <linearGradient
       id="SVGID_1_"
       gradientUnits="userSpaceOnUse"
       x1="-146.9272"
       y1="-651.9707"
       x2="-180.7097"
       y2="-628.3161"
       gradientTransform="matrix(1,0,0,-1,246.7271,-588.7695)">
      <stop
         offset="0"
         style="stop-color:#DEDEDE"
         id="stop46" />
      <stop
         offset="1"
         style="stop-color:#FEFEFE"
         id="stop48" />
    </linearGradient>
    <linearGradient
       id="SVGID_2_"
       gradientUnits="userSpaceOnUse"
       x1="-189.5435"
       y1="-640.2417"
       x2="-189.5435"
       y2="-637.50928"
       gradientTransform="matrix(1,0,0,-1,246.7271,-588.7695)">
      <stop
         offset="0"
         style="stop-color:#FF9D00"
         id="stop55" />
      <stop
         offset="1"
         style="stop-color:#FF1F00"
         id="stop57" />
    </linearGradient>
    <linearGradient
       id="SVGID_3_"
       gradientUnits="userSpaceOnUse"
       x1="-187.9473"
       y1="-632.8501"
       x2="-187.9473"
       y2="-629.52002"
       gradientTransform="matrix(1,0,0,-1,246.7271,-588.7695)">
      <stop
         offset="0"
         style="stop-color:#FF9D00"
         id="stop62" />
      <stop
         offset="1"
         style="stop-color:#FF1F00"
         id="stop64" />
    </linearGradient>
    <linearGradient
       id="SVGID_4_"
       gradientUnits="userSpaceOnUse"
       x1="-184.0972"
       y1="-626.10992"
       x2="-184.0972"
       y2="-622.4624"
       gradientTransform="matrix(1,0,0,-1,246.7271,-588.7695)">
      <stop
         offset="0"
         style="stop-color:#FF9D00"
         id="stop69" />
      <stop
         offset="1"
         style="stop-color:#FF1F00"
         id="stop71" />
    </linearGradient>
    <linearGradient
       id="SVGID_5_"
       gradientUnits="userSpaceOnUse"
       x1="-178.35741"
       y1="-620.79828"
       x2="-178.35741"
       y2="-617.17719"
       gradientTransform="matrix(1,0,0,-1,246.7271,-588.7695)">
      <stop
         offset="0"
         style="stop-color:#FF9D00"
         id="stop76" />
      <stop
         offset="1"
         style="stop-color:#FF1F00"
         id="stop78" />
    </linearGradient>
    <linearGradient
       id="SVGID_6_"
       gradientUnits="userSpaceOnUse"
       x1="-171.24899"
       y1="-617.1958"
       x2="-171.24899"
       y2="-613.95459"
       gradientTransform="matrix(1,0,0,-1,246.7271,-588.7695)">
      <stop
         offset="0"
         style="stop-color:#FF9D00"
         id="stop83" />
      <stop
         offset="1"
         style="stop-color:#FF1F00"
         id="stop85" />
    </linearGradient>
    <linearGradient
       id="SVGID_7_"
       gradientUnits="userSpaceOnUse"
       x1="-163.5132"
       y1="-615.76318"
       x2="-163.5132"
       y2="-613.16553"
       gradientTransform="matrix(1,0,0,-1,246.7271,-588.7695)">
      <stop
         offset="0"
         style="stop-color:#FF9D00"
         id="stop90" />
      <stop
         offset="1"
         style="stop-color:#FF1F00"
         id="stop92" />
    </linearGradient>
    <linearGradient
       id="SVGID_8_"
       gradientUnits="userSpaceOnUse"
       x1="-155.7104"
       y1="-617.43121"
       x2="-155.7104"
       y2="-614.15582"
       gradientTransform="matrix(1,0,0,-1,246.7271,-588.7695)">
      <stop
         offset="0"
         style="stop-color:#FF9D00"
         id="stop97" />
      <stop
         offset="1"
         style="stop-color:#FF1F00"
         id="stop99" />
    </linearGradient>
    <linearGradient
       id="SVGID_9_"
       gradientUnits="userSpaceOnUse"
       x1="-148.6987"
       y1="-621.23682"
       x2="-148.6987"
       y2="-617.60889"
       gradientTransform="matrix(1,0,0,-1,246.7271,-588.7695)">
      <stop
         offset="0"
         style="stop-color:#FF9D00"
         id="stop104" />
      <stop
         offset="1"
         style="stop-color:#FF1F00"
         id="stop106" />
    </linearGradient>
    <linearGradient
       id="SVGID_10_"
       gradientUnits="userSpaceOnUse"
       x1="-143.1055"
       y1="-626.80811"
       x2="-143.1055"
       y2="-623.17719"
       gradientTransform="matrix(1,0,0,-1,246.7271,-588.7695)">
      <stop
         offset="0"
         style="stop-color:#FF9D00"
         id="stop111" />
      <stop
         offset="1"
         style="stop-color:#FF1F00"
         id="stop113" />
    </linearGradient>
    <linearGradient
       id="SVGID_11_"
       gradientUnits="userSpaceOnUse"
       x1="-139.4521"
       y1="-633.63037"
       x2="-139.4521"
       y2="-630.35889"
       gradientTransform="matrix(1,0,0,-1,246.7271,-588.7695)">
      <stop
         offset="0"
         style="stop-color:#FF9D00"
         id="stop118" />
      <stop
         offset="1"
         style="stop-color:#FF1F00"
         id="stop120" />
    </linearGradient>
    <linearGradient
       id="SVGID_12_"
       gradientUnits="userSpaceOnUse"
       x1="-138.10741"
       y1="-641.01709"
       x2="-138.10741"
       y2="-638.37653"
       gradientTransform="matrix(1,0,0,-1,246.7271,-588.7695)">
      <stop
         offset="0"
         style="stop-color:#FF9D00"
         id="stop125" />
      <stop
         offset="1"
         style="stop-color:#FF1F00"
         id="stop127" />
    </linearGradient>
    <linearGradient
       id="SVGID_13_"
       gradientUnits="userSpaceOnUse"
       x1="-139.6123"
       y1="-650.01898"
       x2="-139.6123"
       y2="-646.68799"
       gradientTransform="matrix(1,0,0,-1,246.7271,-588.7695)">
      <stop
         offset="0"
         style="stop-color:#FF9D00"
         id="stop132" />
      <stop
         offset="1"
         style="stop-color:#FF1F00"
         id="stop134" />
    </linearGradient>
    <linearGradient
       id="SVGID_14_"
       gradientUnits="userSpaceOnUse"
       x1="-143.4653"
       y1="-657.07758"
       x2="-143.4653"
       y2="-653.43121"
       gradientTransform="matrix(1,0,0,-1,246.7271,-588.7695)">
      <stop
         offset="0"
         style="stop-color:#FF9D00"
         id="stop139" />
      <stop
         offset="1"
         style="stop-color:#FF1F00"
         id="stop141" />
    </linearGradient>
    <linearGradient
       id="SVGID_15_"
       gradientUnits="userSpaceOnUse"
       x1="-149.2041"
       y1="-662.36078"
       x2="-149.2041"
       y2="-658.7417"
       gradientTransform="matrix(1,0,0,-1,246.7271,-588.7695)">
      <stop
         offset="0"
         style="stop-color:#FF9D00"
         id="stop146" />
      <stop
         offset="1"
         style="stop-color:#FF1F00"
         id="stop148" />
    </linearGradient>
    <linearGradient
       id="SVGID_16_"
       gradientUnits="userSpaceOnUse"
       x1="-156.313"
       y1="-665.58539"
       x2="-156.313"
       y2="-662.34332"
       gradientTransform="matrix(1,0,0,-1,246.7271,-588.7695)">
      <stop
         offset="0"
         style="stop-color:#FF9D00"
         id="stop153" />
      <stop
         offset="1"
         style="stop-color:#FF1F00"
         id="stop155" />
    </linearGradient>
    <linearGradient
       id="SVGID_17_"
       gradientUnits="userSpaceOnUse"
       x1="-164.0488"
       y1="-666.37549"
       x2="-164.0488"
       y2="-663.77881"
       gradientTransform="matrix(1,0,0,-1,246.7271,-588.7695)">
      <stop
         offset="0"
         style="stop-color:#FF9D00"
         id="stop160" />
      <stop
         offset="1"
         style="stop-color:#FF1F00"
         id="stop162" />
    </linearGradient>
    <linearGradient
       id="SVGID_18_"
       gradientUnits="userSpaceOnUse"
       x1="-171.8511"
       y1="-665.38232"
       x2="-171.8511"
       y2="-662.10889"
       gradientTransform="matrix(1,0,0,-1,246.7271,-588.7695)">
      <stop
         offset="0"
         style="stop-color:#FF9D00"
         id="stop167" />
      <stop
         offset="1"
         style="stop-color:#FF1F00"
         id="stop169" />
    </linearGradient>
    <linearGradient
       id="SVGID_19_"
       gradientUnits="userSpaceOnUse"
       x1="-178.8604"
       y1="-661.93213"
       x2="-178.8604"
       y2="-658.30219"
       gradientTransform="matrix(1,0,0,-1,246.7271,-588.7695)">
      <stop
         offset="0"
         style="stop-color:#FF9D00"
         id="stop174" />
      <stop
         offset="1"
         style="stop-color:#FF1F00"
         id="stop176" />
    </linearGradient>
    <linearGradient
       id="SVGID_20_"
       gradientUnits="userSpaceOnUse"
       x1="-184.4575"
       y1="-656.36279"
       x2="-184.4575"
       y2="-652.73291"
       gradientTransform="matrix(1,0,0,-1,246.7271,-588.7695)">
      <stop
         offset="0"
         style="stop-color:#FF9D00"
         id="stop181" />
      <stop
         offset="1"
         style="stop-color:#FF1F00"
         id="stop183" />
    </linearGradient>
    <linearGradient
       id="SVGID_21_"
       gradientUnits="userSpaceOnUse"
       x1="-188.10989"
       y1="-649.18121"
       x2="-188.10989"
       y2="-645.90869"
       gradientTransform="matrix(1,0,0,-1,246.7271,-588.7695)">
      <stop
         offset="0"
         style="stop-color:#FF9D00"
         id="stop188" />
      <stop
         offset="1"
         style="stop-color:#FF1F00"
         id="stop190" />
    </linearGradient>
    <linearGradient
       id="SVGID_22_"
       gradientUnits="userSpaceOnUse"
       x1="-160.2437"
       y1="-660.13428"
       x2="-160.2437"
       y2="-619.71918"
       gradientTransform="matrix(1,0,0,-1,246.7271,-588.7695)">
      <stop
         offset="0"
         style="stop-color:#FF9D00"
         id="stop199" />
      <stop
         offset="1"
         style="stop-color:#FF1F00"
         id="stop201" />
    </linearGradient>
    <linearGradient
       id="SVGID_23_"
       gradientUnits="userSpaceOnUse"
       x1="55.0723"
       y1="10.9849"
       x2="55.0723"
       y2="117.0161">
      <stop
         offset="0"
         style="stop-color:#FF9D00"
         id="stop211" />
      <stop
         offset="1"
         style="stop-color:#FF1F00"
         id="stop213" />
    </linearGradient>
  </defs>
  <sodipodi:namedview
     pagecolor="#ffffff"
     bordercolor="#666666"
     borderopacity="1"
     objecttolerance="10"
     gridtolerance="10"
     guidetolerance="10"
     inkscape:pageopacity="0"
     inkscape:pageshadow="2"
     inkscape:window-width="1366"
     inkscape:window-height="717"
     id="namedview4"
     showgrid="false"
     inkscape:zoom="0.75682523"
     inkscape:cx="375.97076"
     inkscape:cy="162.34541"
     inkscape:window-x="0"
     inkscape:window-y="0"
     inkscape:window-maximized="1"
     inkscape:current-layer="g41"
     showguides="true"
     inkscape:guide-bbox="true"
     inkscape:document-units="px" />
  <path
     style="fill:#cccccc;fill-opacity:1;fill-rule:evenodd;stroke:none;stroke-width:1.02230215"
     d=""
     id="path3783"
     inkscape:connector-curvature="0" />
  <rect
     style="fill:#1a1a1a"
     id="rect3374"
     width="475"
     height="475"
     x="15"
     y="22"
     rx="89.375351" />
  <path
     sodipodi:type="arc"
     style="fill:#ffffff;fill-opacity:1;stroke:none;stroke-width:10;stroke-linecap:round;stroke-linejoin:round;stroke-miterlimit:4;stroke-opacity:1;stroke-dasharray:none"
     id="path2990"
     sodipodi:cx="268.22574"
     sodipodi:cy="270.86111"
     sodipodi:rx="186.30457"
     sodipodi:ry="192.25046"
     d="m 454.5303,270.86111 a 186.30457,192.25046 0 1 1 -372.609127,0 186.30457,192.25046 0 1 1 372.609127,0 z"
     transform="matrix(1.064994,0,0,1.0330919,-34.148575,-15.569859)" />
  <g
     transform="matrix(2.8193715,0,0,2.8193715,21.380623,120.14692)"
     id="g3">
    <path
       style="fill:#99dbf6"
       inkscape:connector-curvature="0"
       d="m 69.829,38.769 0.013,-0.002 0.032,-0.039 -0.014,0.006 c -0.007,0.014 -0.018,0.025 -0.031,0.035 l 0,0 z"
       id="path5" />
    <path
       style="fill:#99dbf6"
       inkscape:connector-curvature="0"
       d="m 69.842,38.721 c 0.019,-0.018 0.024,-0.024 0.029,-0.034 l -0.014,0.003 -0.016,0.019 -0.003,-0.004 0.021,-0.023 -0.014,0.006 c 0,0 -0.046,0.047 -0.06,0.065 h 0.006 l 0.026,-0.026 h 0.006 c -0.004,0.006 -0.027,0.033 -0.024,0.037 0.015,-0.014 0.029,-0.03 0.043,-0.043 l 0,0 z"
       id="path7" />
    <path
       style="fill:#99dbf6"
       inkscape:connector-curvature="0"
       d="m 69.492,38.847 c 0,0 -0.014,-0.001 -0.104,0.084 l -0.011,0.003 c -0.011,0.005 -0.076,0.085 -0.076,0.095 0,0 0.038,-0.023 0.084,-0.072 0.025,0 0.062,-0.023 0.074,-0.03 0.011,-0.007 0.025,-0.019 0.036,-0.028 0.018,-0.017 0.072,-0.079 0.066,-0.088 H 69.56 c -0.002,-10e-4 -0.054,0.028 -0.068,0.036 l 0,0 z"
       id="path9" />
    <path
       style="fill:#99dbf6"
       inkscape:connector-curvature="0"
       d="m 69.158,39.149 c 0,0 0.018,-0.017 0.031,-0.028 C 69.2,39.104 69.203,39.1 69.203,39.1 l 0,0 c 0,-0.001 -0.045,0.038 -0.045,0.049 l 0,0 z"
       id="path11" />
    <polygon
       style="fill:#99dbf6"
       points="69.14,39.138 69.154,39.13 69.192,39.087 69.188,39.087 "
       id="polygon13" />
    <path
       style="fill:#99dbf6"
       inkscape:connector-curvature="0"
       d="m 69.095,39.154 c 0,-0.015 -0.024,0.012 -0.038,0.021 l -0.042,0.047 c -0.004,0.008 -0.008,0.016 -0.015,0.02 -0.065,0.07 -0.062,0.072 -0.062,0.075 0,0 0.004,0 0.021,-0.017 l 0.027,-0.025 0.032,-0.025 0.021,-0.021 h 0.006 L 69.1,39.167 h -0.003 c -0.009,0.008 -0.017,0.016 -0.021,0.022 0.032,-0.044 0.032,-0.048 0.032,-0.048 -0.007,0 -0.008,0.009 -0.008,0.009 l -0.005,0.004 z"
       id="path15" />
    <path
       style="fill:#99dbf6"
       inkscape:connector-curvature="0"
       d="m 68.921,39.317 c -0.008,0.005 -0.021,0.01 -0.028,0.017 l -0.045,0.056 c 0.024,-0.017 0.024,-0.017 0.038,-0.028 0.019,-0.016 0.052,-0.061 0.052,-0.061 0,0 -0.006,0.005 -0.017,0.016 l 0,0 z"
       id="path17" />
    <path
       style="fill:#99dbf6"
       inkscape:connector-curvature="0"
       d="m 68.845,39.382 0.006,-0.006 c 0,0 0.015,-0.015 0.046,-0.057 0.014,-0.016 0.025,-0.029 0.038,-0.043 h -0.008 c -0.01,0.005 -0.052,0.054 -0.078,0.078 -0.05,0.043 -0.05,0.043 -0.102,0.102 0.006,-0.004 0.014,-0.006 0.017,-0.015 0.011,-0.011 0.043,-0.04 0.09,-0.076 l -0.009,0.017 0,0 z"
       id="path19" />
    <path
       style="fill:#99dbf6"
       inkscape:connector-curvature="0"
       d="m 68.643,39.544 c 0,0 0.003,0 0.026,-0.029 0.005,-0.008 0.013,-0.016 0.021,-0.027 -0.014,0.01 -0.048,0.049 -0.048,0.049 v 0.007 z"
       id="path21" />
    <path
       style="fill:#99dbf6"
       inkscape:connector-curvature="0"
       d="m 68.419,39.738 c -0.02,0.02 -0.033,0.041 -0.052,0.059 v 0.001 c 0,0 0.008,-0.007 0.021,-0.024 0.034,-0.035 0.035,-0.037 0.037,-0.041 l 0,0 -0.006,0.005 0,0 z"
       id="path23" />
    <path
       style="fill:#a4d9e6"
       inkscape:connector-curvature="0"
       d="m 64.556,50.796 -0.01,0.005 c -0.003,0.009 -0.025,0.073 -0.025,0.099 0,0.017 0.005,0.026 0.021,0.021 0.001,0.02 0.003,0.029 0.003,0.029 0.008,-0.003 0.015,-0.01 0.019,-0.066 l 0.001,-0.002 c 0,-0.01 0.007,-0.016 0.01,-0.023 0.006,-0.027 -0.009,-0.063 -0.019,-0.063 l 0,0 z"
       id="path25" />
    <path
       style="fill:#a4d9e6"
       inkscape:connector-curvature="0"
       d="m 64.744,51.073 c -0.004,0 -0.013,-0.005 -0.004,-0.058 -0.011,-0.002 -0.014,-0.005 -0.014,-0.005 -0.011,0.003 -0.023,0.005 -0.024,0.05 0,0.02 0,0.03 0,0.03 0.003,0.015 0.008,0.027 0.011,0.044 0,0.009 -0.004,0.022 -0.003,0.035 0,0 0.004,0.011 0.009,0.014 0.005,0.01 0.029,0.018 0.039,-0.043 0.007,-0.057 -0.014,-0.067 -0.014,-0.067 l 0,0 z"
       id="path27" />
    <path
       style="fill:#a4d9e6"
       inkscape:connector-curvature="0"
       d="m 64.884,51.167 -0.008,-0.002 c -0.007,0 -0.014,0.002 -0.014,0.002 -0.011,0 -0.014,0 -0.021,0 -0.007,0 -0.018,0.002 -0.021,0.018 -0.004,0.014 0.001,0.051 0.005,0.061 0.013,0.021 0.027,-0.014 0.029,-0.021 0.011,-0.002 0.024,-0.005 0.032,-0.008 l 0.003,-0.011 c 0.006,-0.032 -0.002,-0.037 -0.005,-0.039 l 0,0 z"
       id="path29" />
    <path
       style="fill:#a4d9e6"
       inkscape:connector-curvature="0"
       d="m 64.94,51.425 c 0,0 0.036,0.003 0.043,-0.055 0.005,-0.049 -0.018,-0.062 -0.026,-0.064 -0.005,-0.035 -0.011,-0.045 -0.025,-0.045 -0.006,0 -0.02,0.004 -0.034,0.021 -0.003,0.008 0,0.016 0,0.016 0.003,0.06 0.015,0.064 0.03,0.051 -0.007,0.072 0.004,0.084 0.012,0.076 l 0,0 z"
       id="path31" />
    <path
       style="fill:#a4d9e6"
       inkscape:connector-curvature="0"
       d="m 65.106,51.759 c -0.003,-0.016 0,-0.033 -0.004,-0.049 -0.001,-0.014 -0.007,-0.029 -0.014,-0.042 -0.008,-0.024 -0.028,-0.066 -0.066,-0.08 0.007,-0.021 0.007,-0.032 0,-0.046 -0.01,0.01 -0.03,0.028 -0.021,0.154 -0.029,0.026 -0.038,0.076 -0.041,0.106 -0.003,0.024 0.008,0.062 0.018,0.079 l 0.004,0.004 c 0.003,0.028 -0.003,0.063 -0.001,0.09 0.004,0.111 0.031,0.12 0.031,0.12 l 0.003,-0.003 c 0,0 0.002,-0.014 0.004,-0.016 10e-4,-0.02 0.004,-0.052 0.027,-0.092 0.018,-0.031 0.056,-0.043 0.071,-0.072 l 0.018,-0.059 C 65.144,51.819 65.127,51.781 65.11,51.76 l -0.004,-10e-4 0,0 z"
       id="path33" />
    <path
       style="fill:#a4d9e6"
       inkscape:connector-curvature="0"
       d="m 67.19,64.876 0.081,0.114 c -0.001,-0.006 -0.018,-0.031 -0.034,-0.052 -0.026,-0.04 -0.042,-0.06 -0.042,-0.06 L 67.19,64.876 z"
       id="path35" />
    <path
       style="fill:#a4d9e6"
       inkscape:connector-curvature="0"
       d="m 67.289,64.996 v 0.005 c 0.044,0.06 0.06,0.081 0.065,0.084 0,0 0,-0.003 -0.035,-0.053 -0.01,-0.018 -0.021,-0.034 -0.03,-0.036 l 0,0 z"
       id="path37" />
    <path
       style="fill:#99dbf6"
       inkscape:connector-curvature="0"
       d="m 70.327,65.986 h -0.003 l 0.006,0.033 c 0,0 0.003,0.008 0.014,0.019 0.014,0.013 0.054,0.05 0.076,0.054 0,0 0.029,0.008 0.014,-0.019 -0.014,-0.022 -0.089,-0.087 -0.107,-0.087 l 0,0 z"
       id="path39" />
    <g
       id="g41">
      <path
         style="fill:none"
         inkscape:connector-curvature="0"
         d="M 104.669,51.671 C 105.464,63.037 96.901,72.896 85.542,73.691 74.186,74.485 64.336,65.916 63.54,54.548 62.744,43.183 71.308,33.323 82.667,32.532 c 11.356,-0.798 21.207,7.776 22.002,19.139 l 0,0 z"
         id="path43" />
      <linearGradient
         id="linearGradient3304"
         gradientUnits="userSpaceOnUse"
         x1="-146.9272"
         y1="-651.9707"
         x2="-180.7097"
         y2="-628.3161"
         gradientTransform="matrix(1,0,0,-1,246.7271,-588.7695)">
        <stop
           offset="0"
           style="stop-color:#DEDEDE"
           id="stop3306" />
        <stop
           offset="1"
           style="stop-color:#FEFEFE"
           id="stop3308" />
      </linearGradient>
      <path
         style="fill:#ffffff;stroke:#1a1a1a;stroke-width:0.75000000000000000;stroke-miterlimit:3.86369990999999979;fill-opacity:1;stroke-opacity:1"
         inkscape:connector-curvature="0"
         stroke-miterlimit="3.8637"
         d="M 103.474,49.933 C 104.27,61.298 95.704,71.158 84.348,71.952 72.99,72.749 63.138,64.177 62.344,52.81 61.55,41.447 70.114,31.587 81.472,30.793 c 11.357,-0.796 21.207,7.777 22.002,19.14 l 0,0 z"
         id="path50" />
      <g
         id="g52"
         style="fill:#1a1a1a">
        <linearGradient
           id="linearGradient3312"
           gradientUnits="userSpaceOnUse"
           x1="-189.5435"
           y1="-640.2417"
           x2="-189.5435"
           y2="-637.50928"
           gradientTransform="matrix(1,0,0,-1,246.7271,-588.7695)">
          <stop
             offset="0"
             style="stop-color:#FF9D00"
             id="stop3314" />
          <stop
             offset="1"
             style="stop-color:#FF1F00"
             id="stop3316" />
        </linearGradient>
        <polygon
           style="fill:#1a1a1a"
           points="55.818,51.334 55.953,48.74 58.55,48.876 58.411,51.472 "
           id="polygon59" />
        <linearGradient
           id="linearGradient3319"
           gradientUnits="userSpaceOnUse"
           x1="-187.9473"
           y1="-632.8501"
           x2="-187.9473"
           y2="-629.52002"
           gradientTransform="matrix(1,0,0,-1,246.7271,-588.7695)">
          <stop
             offset="0"
             style="stop-color:#FF9D00"
             id="stop3321" />
          <stop
             offset="1"
             style="stop-color:#FF1F00"
             id="stop3323" />
        </linearGradient>
        <polygon
           style="fill:#1a1a1a"
           points="57.115,43.194 58.002,40.75 60.445,41.641 59.555,44.081 "
           id="polygon66" />
        <linearGradient
           id="linearGradient3326"
           gradientUnits="userSpaceOnUse"
           x1="-184.0972"
           y1="-626.10992"
           x2="-184.0972"
           y2="-622.4624"
           gradientTransform="matrix(1,0,0,-1,246.7271,-588.7695)">
          <stop
             offset="0"
             style="stop-color:#FF9D00"
             id="stop3328" />
          <stop
             offset="1"
             style="stop-color:#FF1F00"
             id="stop3330" />
        </linearGradient>
        <polygon
           style="fill:#1a1a1a"
           points="60.806,35.74 62.409,33.693 64.455,35.291 62.855,37.34 "
           id="polygon73" />
        <linearGradient
           id="linearGradient3333"
           gradientUnits="userSpaceOnUse"
           x1="-178.35741"
           y1="-620.79828"
           x2="-178.35741"
           y2="-617.17719"
           gradientTransform="matrix(1,0,0,-1,246.7271,-588.7695)">
          <stop
             offset="0"
             style="stop-color:#FF9D00"
             id="stop3335" />
          <stop
             offset="1"
             style="stop-color:#FF1F00"
             id="stop3337" />
        </linearGradient>
        <polygon
           style="fill:#1a1a1a"
           points="66.562,29.899 68.69,28.408 70.178,30.539 68.052,32.029 "
           id="polygon80" />
        <linearGradient
           id="linearGradient3340"
           gradientUnits="userSpaceOnUse"
           x1="-171.24899"
           y1="-617.1958"
           x2="-171.24899"
           y2="-613.95459"
           gradientTransform="matrix(1,0,0,-1,246.7271,-588.7695)">
          <stop
             offset="0"
             style="stop-color:#FF9D00"
             id="stop3342" />
          <stop
             offset="1"
             style="stop-color:#FF1F00"
             id="stop3344" />
        </linearGradient>
        <polygon
           style="fill:#1a1a1a"
           points="73.856,25.941 76.341,25.185 77.1,27.667 74.615,28.426 "
           id="polygon87" />
        <linearGradient
           id="linearGradient3347"
           gradientUnits="userSpaceOnUse"
           x1="-163.5132"
           y1="-615.76318"
           x2="-163.5132"
           y2="-613.16553"
           gradientTransform="matrix(1,0,0,-1,246.7271,-588.7695)">
          <stop
             offset="0"
             style="stop-color:#FF9D00"
             id="stop3349" />
          <stop
             offset="1"
             style="stop-color:#FF1F00"
             id="stop3351" />
        </linearGradient>
        <polygon
           style="fill:#1a1a1a"
           points="81.915,24.396 84.513,24.396 84.513,26.994 81.916,26.994 "
           id="polygon94" />
        <linearGradient
           id="linearGradient3354"
           gradientUnits="userSpaceOnUse"
           x1="-155.7104"
           y1="-617.43121"
           x2="-155.7104"
           y2="-614.15582"
           gradientTransform="matrix(1,0,0,-1,246.7271,-588.7695)">
          <stop
             offset="0"
             style="stop-color:#FF9D00"
             id="stop3356" />
          <stop
             offset="1"
             style="stop-color:#FF1F00"
             id="stop3358" />
        </linearGradient>
        <polygon
           style="fill:#1a1a1a"
           points="90.182,25.386 92.652,26.191 91.852,28.662 89.381,27.86 "
           id="polygon101" />
        <linearGradient
           id="linearGradient3361"
           gradientUnits="userSpaceOnUse"
           x1="-148.6987"
           y1="-621.23682"
           x2="-148.6987"
           y2="-617.60889"
           gradientTransform="matrix(1,0,0,-1,246.7271,-588.7695)">
          <stop
             offset="0"
             style="stop-color:#FF9D00"
             id="stop3363" />
          <stop
             offset="1"
             style="stop-color:#FF1F00"
             id="stop3365" />
        </linearGradient>
        <polygon
           style="fill:#1a1a1a"
           points="97.74,28.839 99.843,30.366 98.312,32.467 96.214,30.939 "
           id="polygon108" />
        <linearGradient
           id="linearGradient3368"
           gradientUnits="userSpaceOnUse"
           x1="-143.1055"
           y1="-626.80811"
           x2="-143.1055"
           y2="-623.17719"
           gradientTransform="matrix(1,0,0,-1,246.7271,-588.7695)">
          <stop
             offset="0"
             style="stop-color:#FF9D00"
             id="stop3370" />
          <stop
             offset="1"
             style="stop-color:#FF1F00"
             id="stop3372" />
        </linearGradient>
        <polygon
           style="fill:#1a1a1a"
           points="103.912,34.408 105.437,36.508 103.337,38.039 101.807,35.935 "
           id="polygon115" />
        <linearGradient
           id="linearGradient3375"
           gradientUnits="userSpaceOnUse"
           x1="-139.4521"
           y1="-633.63037"
           x2="-139.4521"
           y2="-630.35889"
           gradientTransform="matrix(1,0,0,-1,246.7271,-588.7695)">
          <stop
             offset="0"
             style="stop-color:#FF9D00"
             id="stop3377" />
          <stop
             offset="1"
             style="stop-color:#FF1F00"
             id="stop3379" />
        </linearGradient>
        <polygon
           style="fill:#1a1a1a"
           points="108.108,41.589 108.912,44.06 106.441,44.861 105.638,42.39 "
           id="polygon122" />
        <linearGradient
           id="linearGradient3382"
           gradientUnits="userSpaceOnUse"
           x1="-138.10741"
           y1="-641.01709"
           x2="-138.10741"
           y2="-638.37653"
           gradientTransform="matrix(1,0,0,-1,246.7271,-588.7695)">
          <stop
             offset="0"
             style="stop-color:#FF9D00"
             id="stop3384" />
          <stop
             offset="1"
             style="stop-color:#FF1F00"
             id="stop3386" />
        </linearGradient>
        <polygon
           style="fill:#1a1a1a"
           points="109.896,49.607 109.94,52.204 107.346,52.248 107.299,49.65 "
           id="polygon129" />
        <linearGradient
           id="linearGradient3389"
           gradientUnits="userSpaceOnUse"
           x1="-139.6123"
           y1="-650.01898"
           x2="-139.6123"
           y2="-646.68799"
           gradientTransform="matrix(1,0,0,-1,246.7271,-588.7695)">
          <stop
             offset="0"
             style="stop-color:#FF9D00"
             id="stop3391" />
          <stop
             offset="1"
             style="stop-color:#FF1F00"
             id="stop3393" />
        </linearGradient>
        <polygon
           style="fill:#1a1a1a"
           points="108.779,58.804 107.889,61.25 105.45,60.359 106.338,57.918 "
           id="polygon136" />
        <linearGradient
           id="linearGradient3396"
           gradientUnits="userSpaceOnUse"
           x1="-143.4653"
           y1="-657.07758"
           x2="-143.4653"
           y2="-653.43121"
           gradientTransform="matrix(1,0,0,-1,246.7271,-588.7695)">
          <stop
             offset="0"
             style="stop-color:#FF9D00"
             id="stop3398" />
          <stop
             offset="1"
             style="stop-color:#FF1F00"
             id="stop3400" />
        </linearGradient>
        <polygon
           style="fill:#1a1a1a"
           points="105.084,66.262 103.482,68.309 101.439,66.709 103.037,64.662 "
           id="polygon143" />
        <linearGradient
           id="linearGradient3403"
           gradientUnits="userSpaceOnUse"
           x1="-149.2041"
           y1="-662.36078"
           x2="-149.2041"
           y2="-658.7417"
           gradientTransform="matrix(1,0,0,-1,246.7271,-588.7695)">
          <stop
             offset="0"
             style="stop-color:#FF9D00"
             id="stop3405" />
          <stop
             offset="1"
             style="stop-color:#FF1F00"
             id="stop3407" />
        </linearGradient>
        <polygon
           style="fill:#1a1a1a"
           points="99.331,72.104 97.205,73.592 95.715,71.465 97.842,69.973 "
           id="polygon150" />
        <linearGradient
           id="linearGradient3410"
           gradientUnits="userSpaceOnUse"
           x1="-156.313"
           y1="-665.58539"
           x2="-156.313"
           y2="-662.34332"
           gradientTransform="matrix(1,0,0,-1,246.7271,-588.7695)">
          <stop
             offset="0"
             style="stop-color:#FF9D00"
             id="stop3412" />
          <stop
             offset="1"
             style="stop-color:#FF1F00"
             id="stop3414" />
        </linearGradient>
        <polygon
           style="fill:#1a1a1a"
           points="92.036,76.057 89.555,76.816 88.792,74.332 91.278,73.574 "
           id="polygon157" />
        <linearGradient
           id="linearGradient3417"
           gradientUnits="userSpaceOnUse"
           x1="-164.0488"
           y1="-666.37549"
           x2="-164.0488"
           y2="-663.77881"
           gradientTransform="matrix(1,0,0,-1,246.7271,-588.7695)">
          <stop
             offset="0"
             style="stop-color:#FF9D00"
             id="stop3419" />
          <stop
             offset="1"
             style="stop-color:#FF1F00"
             id="stop3421" />
        </linearGradient>
        <polygon
           style="fill:#1a1a1a"
           points="83.978,77.606 81.379,77.606 81.379,75.01 83.978,75.01 "
           id="polygon164" />
        <linearGradient
           id="linearGradient3424"
           gradientUnits="userSpaceOnUse"
           x1="-171.8511"
           y1="-665.38232"
           x2="-171.8511"
           y2="-662.10889"
           gradientTransform="matrix(1,0,0,-1,246.7271,-588.7695)">
          <stop
             offset="0"
             style="stop-color:#FF9D00"
             id="stop3426" />
          <stop
             offset="1"
             style="stop-color:#FF1F00"
             id="stop3428" />
        </linearGradient>
        <polygon
           style="fill:#1a1a1a"
           points="75.711,76.613 73.24,75.811 74.044,73.34 76.512,74.143 "
           id="polygon171" />
        <linearGradient
           id="linearGradient3431"
           gradientUnits="userSpaceOnUse"
           x1="-178.8604"
           y1="-661.93213"
           x2="-178.8604"
           y2="-658.30219"
           gradientTransform="matrix(1,0,0,-1,246.7271,-588.7695)">
          <stop
             offset="0"
             style="stop-color:#FF9D00"
             id="stop3433" />
          <stop
             offset="1"
             style="stop-color:#FF1F00"
             id="stop3435" />
        </linearGradient>
        <polygon
           style="fill:#1a1a1a"
           points="68.152,73.163 66.052,71.637 67.578,69.533 69.682,71.061 "
           id="polygon178" />
        <linearGradient
           id="linearGradient3438"
           gradientUnits="userSpaceOnUse"
           x1="-184.4575"
           y1="-656.36279"
           x2="-184.4575"
           y2="-652.73291"
           gradientTransform="matrix(1,0,0,-1,246.7271,-588.7695)">
          <stop
             offset="0"
             style="stop-color:#FF9D00"
             id="stop3440" />
          <stop
             offset="1"
             style="stop-color:#FF1F00"
             id="stop3442" />
        </linearGradient>
        <polygon
           style="fill:#1a1a1a"
           points="61.983,67.594 60.457,65.492 62.556,63.963 64.083,66.068 "
           id="polygon185" />
        <linearGradient
           id="linearGradient3445"
           gradientUnits="userSpaceOnUse"
           x1="-188.10989"
           y1="-649.18121"
           x2="-188.10989"
           y2="-645.90869"
           gradientTransform="matrix(1,0,0,-1,246.7271,-588.7695)">
          <stop
             offset="0"
             style="stop-color:#FF9D00"
             id="stop3447" />
          <stop
             offset="1"
             style="stop-color:#FF1F00"
             id="stop3449" />
        </linearGradient>
        <polygon
           style="fill:#1a1a1a"
           points="57.784,60.412 56.98,57.941 59.451,57.139 60.255,59.611 "
           id="polygon192" />
      </g>
      <g
         id="g194"
         style="fill:#1a1a1a">
        <g
           id="g196"
           style="fill:#1a1a1a">
          <linearGradient
             id="linearGradient3454"
             gradientUnits="userSpaceOnUse"
             x1="-160.2437"
             y1="-660.13428"
             x2="-160.2437"
             y2="-619.71918"
             gradientTransform="matrix(1,0,0,-1,246.7271,-588.7695)">
            <stop
               offset="0"
               style="stop-color:#FF9D00"
               id="stop3456" />
            <stop
               offset="1"
               style="stop-color:#FF1F00"
               id="stop3458" />
          </linearGradient>
          <path
             style="fill:#1a1a1a"
             inkscape:connector-curvature="0"
             id="SVGID_30_"
             d="m 88.583,32.099 c -0.172,-0.174 -0.386,-0.133 -0.633,-0.156 -0.627,-0.064 -1.312,-0.331 -1.928,-0.424 -0.021,0.006 -0.052,0.002 -0.053,0.026 0.294,0.188 0.617,0.188 1.028,0.239 0.54,0.063 1.049,0.395 1.586,0.315 z m 7.762,7.445 c -0.021,0.006 -0.033,0.021 -0.027,0.053 0.128,0.174 0.269,0.377 0.424,0.553 0.138,0.164 0.304,0.453 0.526,0.423 -0.147,-0.488 -0.439,-0.971 -0.923,-1.029 z m -2.482,-0.502 c -0.136,-0.249 -0.209,-0.563 -0.317,-0.846 -0.181,0.038 -0.308,0.132 -0.445,0.212 -0.038,0.255 -0.087,0.496 -0.212,0.661 0.233,0.223 0.805,0.35 0.974,-0.027 z m -9.344,-1.478 c -0.326,-0.041 -0.55,-0.022 -0.82,-0.026 -0.052,0.05 -0.057,0.153 -0.13,0.186 -0.675,-0.133 -0.855,0.347 -1.295,0.528 0.038,0.361 0.365,0.428 0.662,0.527 0.087,-0.1 0.244,-0.125 0.264,-0.287 0.011,-0.092 -0.134,-0.166 -0.052,-0.238 0.095,0.18 0.209,-0.066 0.342,-0.08 0.03,0.215 -0.201,0.373 -0.185,0.658 -0.209,-0.004 -0.243,0.162 -0.288,0.317 0.06,0.122 0.223,0.144 0.367,0.187 -0.121,0.01 -0.201,0.062 -0.318,0.078 -0.279,-0.102 -0.952,-0.599 -1.08,-0.185 0.005,0.036 0.13,-0.026 0.21,0 0.113,0.194 0.215,0.4 0.316,0.606 0.244,-0.121 0.427,0.012 0.581,0.052 0.484,0.126 0.703,-0.188 1.082,-0.052 0.028,-0.108 0.045,-0.244 -0.025,-0.317 -0.264,0.089 -0.301,-0.188 -0.451,-0.212 0.108,-0.077 0.399,0.108 0.557,-0.052 0.068,-0.114 0.111,-0.289 0.055,-0.449 0.101,-0.169 0.279,-0.263 0.526,-0.289 0.275,-0.265 0.212,-0.73 0.348,-1.108 -0.235,0.136 -0.506,-0.111 -0.666,0.156 z m -2.561,2.744 c 0.09,0.016 0.081,0.131 0.131,0.185 0.251,-0.056 0.317,-0.298 0.475,-0.445 -0.09,-0.05 -0.073,-0.209 -0.185,-0.239 -0.086,0.146 -0.358,0.097 -0.448,0.239 0.038,0.096 0.003,0.204 0.027,0.26 z m 0,-8.843 c 0.003,0.239 0.671,0.232 0.791,0.027 -0.228,-0.034 -0.555,-0.092 -0.791,-0.027 z m 3.695,6.443 c -0.056,0.234 -0.258,0.32 -0.345,0.527 -0.131,-0.045 -0.183,0.041 -0.288,0.078 0.041,0.083 0.014,0.149 -0.028,0.213 0.341,0.234 0.788,0.36 1.347,0.368 0.088,-0.032 0.101,-0.146 0.21,-0.155 0.75,0.05 1.033,0.569 1.507,0.896 0.136,0.02 0.174,-0.057 0.286,-0.056 0.051,0.045 0.067,0.112 0.054,0.215 -0.027,0.06 -0.177,-0.003 -0.158,0.103 0.054,0.293 0.652,0.037 0.685,0.346 -0.018,0.084 -0.099,0.109 -0.104,0.211 0.188,0.588 0.64,0.934 1.189,1.191 0.477,0.221 0.66,0.578 1.241,0.578 0.26,-0.106 0.472,-0.267 0.527,-0.578 -0.137,-0.473 -0.565,-0.649 -0.582,-1.244 0.081,-0.074 0.171,-0.144 0.265,-0.209 0.015,-0.146 0.042,-0.277 0.077,-0.396 -0.269,-0.559 0.207,-0.947 0.396,-1.295 -0.052,-0.268 -0.236,-0.396 -0.37,-0.554 -0.078,-0.091 -0.073,-0.171 -0.159,-0.237 -0.041,-0.034 -0.122,-0.034 -0.184,-0.08 -0.269,-0.207 -0.438,-0.566 -0.635,-0.737 -0.135,-0.121 -0.371,-0.215 -0.525,-0.345 -0.144,-0.119 -0.181,-0.271 -0.348,-0.291 -0.119,-0.029 -0.102,0.074 -0.212,0.053 -0.185,-0.275 -0.381,-0.531 -0.528,-0.844 -0.112,0.023 -0.124,-0.051 -0.211,-0.052 0.025,0.228 -0.479,0.129 -0.476,0.419 -0.229,-0.005 -0.395,-0.075 -0.657,-0.051 -0.199,0.33 -0.502,0.555 -0.924,0.661 -0.017,0.104 0.024,0.15 0.026,0.235 -0.066,0.025 -0.113,0.062 -0.214,0.054 -0.041,0.329 -0.455,0.284 -0.605,0.501 0.024,0.137 0.092,0.225 0.108,0.369 -0.122,0.031 -0.189,0.123 -0.365,0.106 z m 14.177,3.773 c -0.168,-0.348 -0.457,-0.617 -0.583,-0.924 -0.156,-0.376 -0.113,-0.713 -0.318,-1.004 0.147,0.082 0.223,-0.051 0.395,-0.025 0.085,-0.217 -0.106,-0.416 -0.264,-0.606 0.014,0.062 -0.157,0.038 -0.155,0.159 -0.193,-0.1 -0.334,-0.249 -0.4,-0.476 0.104,0.007 0.1,-0.097 0.132,-0.159 0.204,0.027 0.292,0.262 0.413,0.359 -0.519,-0.678 -1.075,-1.317 -1.673,-1.922 -0.423,-0.393 -0.825,-0.78 -1.233,-1.157 -1.196,-1.032 -2.511,-1.928 -3.919,-2.667 -0.245,-0.115 -0.492,-0.228 -0.74,-0.342 -0.585,-0.264 -1.167,-0.531 -1.769,-0.771 -1.553,-0.566 -3.188,-0.952 -4.889,-1.134 -3.109,-0.224 -6.24,0.155 -8.466,1.063 -1.401,0.57 -2.766,1.081 -3.908,1.848 0.285,-0.145 0.506,-0.354 0.846,-0.449 -0.504,0.395 -0.994,0.803 -1.453,1.242 0.04,0.014 0.136,-0.031 0.132,0.025 -0.208,0.195 -0.533,0.412 -0.475,0.713 -0.187,0.023 -0.229,-0.193 -0.396,-0.21 -0.136,-0.017 -0.396,0.13 -0.581,0.233 -0.344,0.195 -0.721,0.332 -0.844,0.639 0.493,0.13 0.816,-0.359 1.344,-0.16 -0.034,0.174 -0.058,0.357 -0.052,0.58 0.168,0.057 0.136,0.166 0.157,0.342 0.257,-0.103 0.489,-0.234 0.82,-0.262 -0.04,0.382 0.038,0.646 0.263,0.765 0.151,-0.335 0.356,-0.588 0.557,-0.868 0.1,-0.147 0.146,-0.309 0.236,-0.476 0.142,-0.263 0.538,-0.593 0.237,-0.925 0.444,-0.26 0.649,-0.762 1.135,-0.979 0,-0.069 -0.009,-0.152 0.027,-0.185 0.135,-0.049 0.287,-0.085 0.318,-0.237 0.269,-0.211 0.617,-0.287 0.87,-0.528 0.051,-0.046 0.075,-0.112 0.13,-0.157 0.135,-0.105 0.32,-0.158 0.478,-0.266 0.146,-0.099 0.274,-0.254 0.421,-0.343 0.467,-0.282 1.112,-0.378 1.688,-0.581 0.581,-0.203 1.209,-0.322 1.795,-0.424 -0.021,0.025 -0.182,0.041 -0.104,0.08 0.235,-0.053 0.421,-0.006 0.661,-0.023 0.326,-0.029 0.619,-0.196 0.95,-0.24 0.309,-0.04 0.685,0.031 1.031,0 0.486,-0.041 1.171,-0.154 1.687,-0.08 0.07,0.012 -0.057,0.053 0.052,0.055 0.478,0.006 0.912,0.064 1.322,0.078 0.1,0.004 0.088,0.123 0.185,0.131 0.781,-0.059 1.303,0.18 1.848,0.318 0.609,0.16 1.098,0.305 1.612,0.502 0.258,0.1 0.568,0.188 0.764,0.289 0.09,0.046 0.145,0.15 0.239,0.186 0.14,0.055 0.312,0.03 0.448,0.08 0.214,0.078 0.401,0.246 0.606,0.344 0.262,0.119 0.604,0.149 0.765,0.42 -0.615,0.061 -0.724,-0.613 -1.398,-0.58 0.07,0.23 0.567,0.5 0.396,0.818 0.389,0.295 0.688,0.682 1.188,0.871 0.138,0.281 0.403,0.32 0.661,0.499 0.136,0.101 0.239,0.262 0.368,0.347 0.228,0.143 0.504,0.199 0.687,0.37 0.208,0.19 0.28,0.512 0.474,0.738 0.277,0.316 0.604,0.45 0.979,0.632 0.018,-0.123 -0.036,-0.315 0.025,-0.396 0.246,-0.007 0.407,0.07 0.605,0.105 -0.284,-0.568 -0.822,-0.882 -1.316,-1.241 -0.772,-0.178 -1.18,-0.861 -1.716,-1.186 0.526,0.111 0.69,0.589 1.216,0.711 0.093,0.043 0.014,-0.09 0.076,-0.081 0.891,0.582 1.906,1.177 2.164,2.297 -0.201,-0.151 -0.44,-0.401 -0.766,-0.343 0.285,0.253 0.642,0.432 0.926,0.686 0,0.072 -0.014,0.154 0.022,0.187 0.184,0.163 0.238,0.396 0.368,0.606 0.275,0.431 0.73,0.803 0.821,1.294 0.048,0.244 -0.007,0.494 0.133,0.738 0.922,0.136 1.182,1.073 0.925,1.928 0.401,0.476 0.668,1.091 1.078,1.559 0.063,-0.198 0.241,-0.198 0.293,-0.37 0.032,-0.109 0.005,-0.309 0,-0.396 -0.057,-0.748 -0.301,-1.125 -0.551,-1.664 z m -0.923,19.084 c -0.146,-0.062 -0.941,-0.125 -1.059,-0.105 -0.315,0.057 -0.562,0.383 -0.791,0.45 -0.089,-0.026 -0.083,-0.146 -0.212,-0.132 -0.452,0.135 -0.971,0.021 -1.373,0.262 0.044,-0.559 -0.255,-1.246 -0.871,-1.211 -0.383,0.017 -0.682,0.337 -1.106,0.343 0,-0.116 0.007,-0.239 -0.028,-0.317 h -0.369 c -0.364,-0.297 -0.779,-0.538 -1.35,-0.635 -0.237,0.146 -0.54,0.195 -0.895,0.187 -0.661,-0.019 -1.419,-0.055 -1.953,0.185 0.049,-0.096 0.087,-0.26 0,-0.342 -0.672,0.339 -1.388,0.635 -1.742,1.292 -0.346,0.021 -0.61,-0.129 -0.923,-0.081 -0.13,0.023 -0.237,0.151 -0.37,0.16 -0.371,0.023 -0.652,-0.242 -1.002,-0.343 0.214,-0.507 0.088,-1.161 -0.133,-1.585 -0.511,-0.137 -1.191,-0.213 -1.74,-0.156 0.124,-0.582 0.394,-1.014 0.632,-1.479 -0.383,-0.174 -0.718,-0.229 -1.135,-0.052 -0.345,0.144 -0.627,0.518 -0.951,0.579 -0.365,0.07 -0.827,-0.086 -1.239,-0.158 -0.044,-0.225 0.026,-0.366 -0.027,-0.581 -0.046,-0.187 -0.25,-0.324 -0.264,-0.501 -0.014,-0.148 0.101,-0.291 0.132,-0.422 0.097,-0.424 0.146,-0.871 0.159,-1.347 0.157,-0.136 0.28,-0.347 0.472,-0.396 0.567,-0.144 0.792,0.187 1.164,0.212 0.156,0.011 0.383,-0.021 0.527,-0.078 0.123,-0.049 0.198,-0.217 0.369,-0.264 0.421,-0.119 0.835,-0.088 1.263,-0.106 0.313,-0.013 0.392,0.05 0.479,0.378 0.112,0.426 0.439,0.645 0.526,1.069 0.029,0.139 0.383,-0.173 0.407,-0.206 0.13,-0.199 0.201,-0.581 0.133,-0.814 -0.049,-0.17 -0.174,-0.301 -0.239,-0.465 -0.064,-0.166 -0.043,-0.328 -0.111,-0.491 0.245,-0.464 0.804,-0.562 1.133,-0.921 0.105,-0.116 0.238,-0.307 0.32,-0.449 0.108,-0.205 0.29,-0.579 0.368,-0.846 0.098,-0.334 -0.059,-0.663 0.104,-1.057 0.374,-0.15 0.766,-0.288 1.08,-0.498 -0.062,-0.074 -0.137,-0.127 -0.157,-0.239 0.116,-0.177 0.271,-0.414 0.397,-0.503 0.075,-0.51 0.146,-1.031 0.235,-1.529 0.188,-0.064 0.317,-0.197 0.556,-0.212 -0.009,-0.097 -0.105,-0.106 -0.078,-0.239 -0.199,-10e-4 -0.616,0.006 -0.685,-0.211 0.354,-0.48 1.249,-0.266 1.688,-0.658 0.037,-0.138 0.076,-0.277 0.159,-0.369 0.084,0.062 0.146,0.005 0.185,0.076 -0.059,0.258 -0.19,0.578 -0.106,0.819 0.285,-0.198 0.66,-0.308 0.924,-0.526 0.004,0.027 0.028,0.04 0.051,0.051 0.017,-0.102 -0.165,-0.086 -0.289,-0.105 -0.272,-0.307 -0.425,-0.738 -0.606,-1.135 -0.532,-0.387 -1.322,-0.463 -1.849,-0.846 -0.243,-0.177 -0.318,-0.492 -0.605,-0.555 -0.145,0.148 -0.166,0.419 -0.348,0.527 -0.192,0.003 -0.391,0.007 -0.553,-0.024 -0.156,-0.409 -0.37,-0.759 -0.661,-1.03 -0.436,-0.074 -1.023,-0.102 -1.292,0.133 -0.017,0.795 -0.017,1.579 0.448,1.899 -0.124,0.262 -0.454,0.387 -0.476,0.739 -0.015,0.273 0.331,0.809 -0.077,0.975 -0.274,-0.262 -0.543,-0.529 -0.474,-1.132 -0.285,-0.069 -0.538,-0.182 -0.82,-0.292 -0.252,-0.099 -0.54,-0.285 -0.79,-0.316 -0.29,-0.037 -0.605,0.093 -0.871,-0.105 -0.133,-0.282 -0.385,-0.426 -0.399,-0.763 -0.021,-0.565 0.587,-0.82 0.796,-1.218 0.345,-0.042 0.582,-0.33 0.763,-0.447 -0.073,0.338 0.105,0.529 0.342,0.632 0.144,-0.075 0.211,-0.231 0.319,-0.343 0.123,0.07 0.265,0.12 0.448,0.133 v -0.236 c -0.371,-0.149 -0.74,-0.298 -0.952,-0.607 0.378,-0.16 1.013,-0.326 0.661,-0.898 0.097,0.004 0.136,-0.219 0.262,-0.266 0.36,0.295 1.072,0.232 1.401,0.558 -0.039,0.218 -0.122,0.388 -0.159,0.606 -0.231,0.068 -0.395,0.203 -0.634,0.264 0.017,0.123 -0.042,0.17 -0.053,0.265 0.257,-0.028 0.498,-0.062 0.739,-0.104 0.367,0.256 0.779,0.466 1.266,0.605 0.104,-0.073 0.228,-0.127 0.372,-0.158 0.029,-0.276 0.316,-0.379 0.238,-0.686 -0.269,-0.129 -0.575,-0.219 -0.688,-0.502 0.343,-0.02 0.541,0.146 0.843,0.026 0.005,-0.153 -0.046,-0.249 -0.049,-0.396 -0.242,-0.157 -0.473,-0.321 -0.872,-0.317 -0.301,-0.244 -0.562,-0.528 -1.004,-0.632 -0.052,0.068 -0.117,0.127 -0.264,0.104 -0.252,-0.189 -0.377,-0.518 -0.687,-0.634 -0.293,-0.108 -0.674,-0.075 -1.081,-0.157 -0.119,0.095 -0.136,0.286 -0.212,0.421 -0.051,-0.114 -0.106,-0.229 -0.211,-0.289 -0.134,-0.003 -0.218,0.044 -0.367,0.025 -0.192,0.264 -0.324,0.828 -0.056,1.108 0.273,0.092 0.521,0.064 0.819,0.104 -0.139,0.17 -0.303,0.318 -0.503,0.426 -0.168,-0.078 -0.293,-0.253 -0.501,-0.213 -0.311,-0.222 -0.478,-0.579 -0.737,-0.846 -0.176,0.164 -0.176,0.629 0.079,0.712 -0.054,0.107 0.044,0.272 -0.029,0.396 -0.118,-0.092 -0.174,0.117 -0.261,0.054 0.053,-0.2 0.084,-0.464 -0.052,-0.581 -0.386,0.013 -0.549,0.244 -0.769,0.422 -0.549,-0.062 -0.92,-0.268 -1.374,0 -0.096,-0.085 -0.266,-0.102 -0.261,-0.29 0.481,0.048 1.157,0.165 1.478,-0.185 -0.155,0.025 -0.163,-0.283 -0.291,-0.369 0.022,-0.252 -0.051,-0.407 -0.051,-0.635 -0.163,-0.075 -0.236,-0.28 -0.475,-0.291 -0.082,-0.003 -0.175,0.074 -0.265,0.08 -0.412,0.027 -0.592,-0.136 -0.738,-0.367 0.024,-0.074 0.055,-0.143 0.053,-0.241 -0.188,-0.087 -0.278,-0.052 -0.503,-0.024 -0.139,-0.098 -0.221,-0.255 -0.396,-0.314 -0.239,0.248 -0.424,0.558 -0.633,0.842 0.154,0.24 0.593,0.035 0.845,0.184 0.122,-0.115 0.2,-0.271 0.373,-0.342 0.046,0.158 -0.148,0.199 -0.187,0.396 -0.044,0.222 0.145,0.557 -0.053,0.738 C 78.155,40.5 77.5,40.497 77.235,40.1 c -0.047,-0.009 -0.131,0.073 -0.159,0 -0.035,-0.083 0.066,-0.157 0,-0.185 -0.341,0.205 -0.582,-0.129 -1.029,-0.053 -0.149,-0.121 -0.316,-0.229 -0.528,-0.291 -0.036,-0.33 -0.133,-0.557 -0.369,-0.709 -0.396,-0.259 -0.844,-0.229 -0.475,-0.768 -0.142,-0.114 -0.19,-0.281 -0.185,-0.475 -0.369,-0.138 -0.804,-0.188 -1.241,-0.131 -0.188,0.318 -0.621,0.578 -1.055,0.42 -0.021,0.096 -0.036,0.231 -0.054,0.396 0.066,0.058 0.129,0.119 0.186,0.188 -0.129,0.013 -0.129,0.151 -0.239,0.184 -0.111,-0.014 -0.151,-0.095 -0.262,-0.107 -0.443,0.078 -0.502,0.235 -0.739,0.609 -0.218,0.34 -0.264,0.709 -0.372,1.055 0.064,0.016 0.192,-0.031 0.214,0.027 -0.144,0.211 -0.76,0.277 -1.004,0.133 0.049,0.24 0.228,0.348 0.396,0.472 0.273,-0.122 0.632,-0.222 0.868,-0.049 -0.191,0.153 0.14,0.253 -0.054,0.419 0.187,-0.027 0.23,-0.189 0.266,-0.37 0.22,-0.084 0.345,-0.466 0.605,-0.341 -0.032,0.154 -0.182,0.319 -0.182,0.42 0.243,0.119 0.423,-0.02 0.633,-0.079 -0.027,0.087 -0.074,0.159 -0.079,0.265 0.09,-0.012 0.149,0.012 0.212,0.025 0.238,0.57 0.83,0.791 0.817,1.613 0.084,-0.006 0.16,-0.002 0.185,0.051 0.287,0.646 0.026,1.669 0.187,2.351 -0.391,0.269 -0.057,0.561 0.024,0.817 0.183,0.566 -0.113,1.102 -0.29,1.532 -0.094,0.231 -0.261,0.429 -0.342,0.664 -0.078,0.212 -0.034,0.415 -0.028,0.645 0.013,0.524 -0.021,1.054 0.074,1.569 0.021,0.107 0.039,0.221 0.053,0.331 0.013,0.08 -0.018,0.227 -0.012,0.278 0.021,0.171 0.213,0.236 0.314,0.35 0.098,0.113 0.166,0.264 0.258,0.388 0.108,0.142 0.285,0.267 0.369,0.446 0.125,0.271 0.055,0.549 0.106,0.824 0.027,0.152 0.114,0.148 0.151,0.262 0.036,0.098 -0.026,0.174 -0.02,0.273 0.007,0.111 0.077,0.209 0.129,0.305 0.067,0.131 0.091,0.281 0.162,0.406 0.068,0.111 0.183,0.16 0.247,0.258 0.167,0.244 0.226,0.561 0.41,0.816 0.177,0.241 0.352,0.509 0.633,0.5 0.008,-0.109 0.133,-0.589 -0.023,-0.658 -0.297,-0.131 -0.558,-0.533 -0.718,-0.799 -0.086,-0.141 -0.274,-0.399 -0.311,-0.538 -0.08,-0.307 0.157,-0.694 0.056,-0.958 0.156,0.025 0.146,0.189 0.179,0.314 0.104,0.424 0.227,0.836 0.343,1.214 0.479,0.212 0.721,0.485 1.006,0.872 0.155,0.213 0.349,0.43 0.443,0.632 0.149,0.302 0.104,0.633 0.213,0.953 0.11,0.316 0.438,0.522 0.529,0.818 0.844,0.306 1.673,0.632 2.324,1.134 0.577,-0.35 0.974,0.09 1.371,0.317 0.794,0.45 2.147,0.299 2.401,1.159 0.101,0.025 0.174,0.076 0.212,0.16 0.032,0.109 -0.055,0.104 -0.052,0.186 0.306,0.12 0.589,0.258 0.738,0.529 0.442,0.195 1.12,0.134 1.556,-0.029 0.114,0.188 0.405,0.198 0.528,0.371 0.01,0.23 0.048,0.384 -0.023,0.557 -0.071,0.174 -0.415,0.744 -0.529,0.871 -0.154,0.176 -0.383,0.27 -0.472,0.473 -0.136,0.312 -0.047,0.603 0.026,0.873 -0.404,0.165 -0.198,0.659 -0.053,0.977 0.208,0.053 0.371,0.155 0.553,0.236 0.168,0.679 0.793,0.897 0.923,1.611 0.497,0.203 1.05,-0.133 1.479,0.184 0.018,0.102 0.065,0.167 0.079,0.268 -0.155,0.206 -0.288,0.429 -0.345,0.736 -0.609,0.64 -0.712,1.783 -1.716,2.035 -0.06,0.185 -0.15,0.341 -0.236,0.5 0.039,0.002 0.098,-0.01 0.105,0.027 -0.241,0.205 -0.896,0.135 -0.923,0.475 0.299,0.109 0.713,-0.087 1.081,-0.08 0.064,-0.038 -0.049,-0.084 0.054,-0.078 0.988,-0.344 1.92,-0.688 2.8,-1.189 0.363,-0.127 0.67,-0.177 1.003,-0.316 0.318,-0.135 0.491,-0.393 0.767,-0.555 0.18,-0.107 0.366,-0.165 0.551,-0.291 0.668,-0.451 1.472,-0.801 1.952,-1.396 0.093,-0.321 0.31,-0.495 0.529,-0.663 0.911,-0.695 2.021,-1.39 2.641,-2.35 0.222,-0.338 0.249,-0.762 0.474,-1.213 0.389,-0.77 1.276,-1.276 1.531,-2.246 -0.047,-0.032 -0.088,-0.159 -0.155,-0.192 z M 85.919,49.39 c 0.101,0.002 0.117,0.088 0.236,0.078 0.037,-0.021 0.037,-0.084 0.052,-0.133 h 0.104 c 0.067,0.078 0.021,0.107 0.026,0.237 -0.104,0.06 -0.244,0.097 -0.396,0.104 -0.054,-0.058 -0.068,-0.197 -0.022,-0.286 z m -0.806,-0.389 c 0.074,0.092 0.111,0.215 0.084,0.391 -0.193,0.055 -0.404,0.069 -0.592,-0.007 0.123,-0.275 -0.253,-0.579 -0.479,-0.683 0.198,-0.285 0.312,-0.182 0.541,-0.031 0.18,0.123 0.346,0.205 0.446,0.33 z m -1.621,1.16 c -0.058,0.106 -0.104,0.218 -0.115,0.335 -0.452,0.068 -0.498,-0.324 -0.379,-0.664 0.049,-0.141 0.676,-0.998 0.676,-0.998 0.076,0.057 0.155,0.031 0.212,0.055 -0.003,0.305 -0.057,0.59 -0.175,0.871 -0.058,0.128 -0.146,0.261 -0.219,0.401 z m 0.313,-2.171 c 0.105,0.143 0.209,0.287 0.265,0.477 -0.591,0.008 -1.006,0.146 -1.585,0.105 -0.025,-0.081 -0.127,-0.084 -0.133,-0.186 0.494,-0.154 0.828,-0.681 1.453,-0.396 z m 16.507,-7.119 c -0.071,-0.113 -0.142,-0.223 -0.223,-0.324 0.075,0.102 0.148,0.21 0.223,0.324 z m 2.816,9.337 c -0.102,-0.941 -0.191,-1.843 -0.316,-2.746 -0.049,-0.34 -0.073,-0.697 -0.126,-1.032 -0.08,-0.312 -0.17,-0.624 -0.268,-0.935 -0.119,-0.308 -0.258,-0.621 -0.375,-0.936 -0.119,-0.324 -0.221,-0.666 -0.328,-0.991 -0.327,-0.775 -0.7,-1.523 -1.113,-2.247 -0.098,-0.158 -0.195,-0.309 -0.29,-0.451 0.165,0.276 0.304,0.58 0.412,0.917 -0.164,-0.146 -0.338,-0.558 -0.501,-0.528 0.153,0.816 0.316,1.618 0.446,2.456 -0.04,0.093 -0.206,0.056 -0.209,0.185 0.16,0.465 0.27,0.979 0.318,1.557 0.22,0.422 0.508,0.906 0.526,1.426 0.017,0.354 -0.093,0.7 -0.104,1.027 -0.019,0.416 -0.005,0.865 0.054,1.27 0.092,0.652 0.467,1.266 0.552,1.951 0.03,0.256 -0.046,0.463 0,0.686 0.052,0.273 0.253,0.557 0.212,0.873 0.106,0.043 0.269,0.03 0.369,0.078 0.073,0.157 0.14,0.317 0.159,0.526 0.108,0.041 0.21,0.09 0.319,0.134 0.084,-0.642 0.408,-1.233 0.419,-1.875 0.011,-0.425 -0.107,-0.893 -0.156,-1.345 z m -3.222,-9.451 c -0.146,-0.117 -0.132,-0.398 -0.345,-0.449 0.083,0.168 0.182,0.455 0.345,0.449 z M 97.77,40.284 c -0.054,-0.405 -0.2,-0.942 -0.423,-1.267 -0.176,-0.062 -0.34,-0.137 -0.605,-0.107 -0.378,-0.193 -0.741,-0.406 -1.137,-0.582 -0.018,0.062 -0.088,0.073 -0.107,0.135 0.16,0.184 0.285,0.402 0.476,0.555 0.049,-0.068 0.104,-0.127 0.213,-0.135 0.64,0.348 1.085,0.889 1.503,1.453 0.012,-0.032 0.034,-0.053 0.08,-0.052 z M 87.342,57.306 c 0.128,-0.108 0.152,-0.323 0.369,-0.342 -0.175,-0.072 -0.351,-0.299 -0.579,-0.342 -0.179,-0.035 -0.39,0.036 -0.583,0.021 -0.626,-0.025 -1.289,-0.465 -1.849,-0.234 -0.037,0.088 -0.069,0.178 -0.105,0.263 0.478,0.119 0.955,0.14 1.4,0.317 0.258,0.104 0.543,0.396 0.793,0.396 0.202,0.005 0.349,-0.241 0.554,-0.079 z M 71.003,38.965 c -0.037,0.069 -0.138,0.069 -0.133,0.184 0.06,-0.03 0.185,-0.13 0.133,-0.184 z m 19.188,18.21 c -0.034,0.301 0.156,0.36 0.373,0.346 0.021,-0.152 0.128,-0.223 0.184,-0.346 -0.184,-0.148 -0.352,-0.071 -0.557,0 z M 73.087,44.56 c 0.11,-0.014 0.156,-0.093 0.239,-0.133 -0.046,-0.184 0.034,-0.201 0.104,-0.315 -0.177,0.093 -0.076,-0.128 -0.212,-0.135 -0.006,0.04 -0.056,0.032 -0.079,0.055 0.086,0.219 -0.095,0.272 -0.052,0.528 z m 0.872,-8.844 c -0.103,0.02 -0.215,0.029 -0.263,0.104 0.037,0.017 0.064,0.043 0.079,0.08 0.104,-0.02 0.141,-0.103 0.184,-0.184 z M 90.51,57.757 c 0.022,-0.04 0.064,-0.057 0.132,-0.053 -0.003,-0.029 0.004,-0.072 -0.025,-0.08 -0.011,0.054 -0.213,0.051 -0.107,0.133 z m -4.039,0 v 0.264 c 0.223,0.152 0.603,-0.036 0.661,-0.291 -0.24,-0.038 -0.461,-0.074 -0.661,0.027 z m 1.557,-0.451 c 0.04,0.087 0.098,0.152 0.132,0.24 0.594,0.251 1.092,0.045 1.663,-0.104 0.019,-0.164 -0.083,-0.198 -0.076,-0.345 -0.505,-0.041 -0.946,-0.073 -1.534,-0.105 -0.029,0.136 -0.145,0.188 -0.185,0.314 z M 76.362,33.025 c -0.095,-0.016 -0.138,0.021 -0.16,0.079 0.071,0.009 0.223,-0.125 0.16,-0.079 z m 12.933,0.631 C 89.088,33.63 88.949,33.527 88.74,33.5 c 0.005,0.105 0.08,0.147 0.078,0.263 0.125,0.035 0.258,0.059 0.394,0.079 -0.043,0.088 -0.136,0.125 -0.183,0.213 0.183,0.373 0.811,0.418 1.16,0.158 -0.223,-0.199 -0.494,-0.348 -0.868,-0.398 -0.049,-0.039 0.038,-0.102 -0.026,-0.159 z m -7.469,-2.217 c -0.105,-0.074 -0.271,0.014 -0.37,0.026 -0.087,-0.019 -0.201,0.032 -0.055,0.027 0.118,0.031 0.397,0.129 0.425,-0.053 z m -0.529,7.393 c 0.167,0 0.291,-0.044 0.396,-0.105 v -0.16 c -0.263,0.026 -0.194,-0.277 -0.445,-0.131 -0.077,0.178 -0.019,0.243 0.049,0.396 z m 0.501,1.821 c -0.035,-0.151 0.062,-0.17 0.081,-0.263 -0.046,-0.148 -0.098,-0.29 -0.134,-0.45 -0.133,-0.06 -0.208,-0.183 -0.371,-0.212 -0.218,0.168 -0.396,0.377 -0.526,0.635 0.163,0.252 0.497,0.332 0.95,0.29 z m -1.713,-1.532 c -0.282,-0.068 -0.616,-0.453 -0.82,-0.131 0.038,0.136 0.113,0.239 0.185,0.344 0.231,-0.082 0.405,0.139 0.608,0.184 0.154,0.033 0.317,-0.075 0.476,0.027 0.013,-0.254 -0.079,-0.355 0,-0.555 -0.219,-0.096 -0.319,0.062 -0.449,0.131 z m -3.487,-6.284 c 0.243,-0.143 0.593,-0.179 0.767,-0.395 -0.345,0.028 -0.641,0.241 -0.767,0.395 z m 2.007,5.94 c 0.084,0.014 0.095,0.101 0.185,0.105 0.151,-0.191 0.583,-0.104 0.819,-0.209 -0.105,-0.526 -0.582,-0.129 -0.95,-0.055 0.028,0.102 -0.066,0.079 -0.054,0.159 z m 2.455,0.607 c 0.269,0.016 0.415,0.15 0.581,0.267 -0.006,-0.182 0.217,-0.22 0.133,-0.397 -0.184,-0.012 -0.302,-0.088 -0.424,-0.156 -0.078,0.112 -0.249,0.136 -0.29,0.286 z" />
        </g>
      </g>
    </g>
    <g
       id="g208">
      <linearGradient
         id="linearGradient3464"
         gradientUnits="userSpaceOnUse"
         x1="55.0723"
         y1="10.9849"
         x2="55.0723"
         y2="117.0161">
        <stop
           offset="0"
           style="stop-color:#FF9D00"
           id="stop3466" />
        <stop
           offset="1"
           style="stop-color:#FF1F00"
           id="stop3468" />
      </linearGradient>
      <path
         style="fill:#1a1a1a;fill-rule:evenodd"
         inkscape:connector-curvature="0"
         clip-rule="evenodd"
         d="m 69.875,87.258 15.664,27.408 4.676,-2.578 c 0.887,-0.885 1.477,-1.594 1.773,-2.121 0.299,-0.529 -0.102,-1.637 -1.195,-3.322 L 79.359,86.889 c -0.252,-0.451 -0.67,-0.969 -1.254,-1.553 -1.227,-1.229 -2.424,-1.434 -3.59,-0.615 l -4.64,2.537 0,0 z M 28.246,14.039 44.152,41.373 48.771,38.678 c 0.639,-0.289 1.002,-0.828 1.086,-1.613 0.086,-0.785 -0.139,-1.736 -0.674,-2.85 L 36.93,13.025 c -0.094,-0.254 -0.373,-0.613 -0.838,-1.078 -0.406,-0.408 -0.756,-0.641 -1.047,-0.699 -0.58,-0.35 -1.162,-0.35 -1.742,0 l -5.057,2.791 0,0 z m -3.262,2.029 c -4.783,4.785 -7.088,13.162 -6.914,25.131 0.117,4.787 1.283,10.332 3.502,16.637 2.217,6.304 5.482,13.194 9.801,20.667 3.09,5.428 6.531,10.447 10.324,15.059 3.791,4.613 7.672,8.902 11.639,12.873 1.867,1.867 4.01,3.459 6.43,4.773 2.422,1.312 5.236,2.525 8.443,3.635 3.209,1.109 5.936,1.795 8.182,2.059 2.246,0.264 4.33,0.074 6.254,-0.566 L 66.98,88.926 C 64.941,90.266 63.281,90.41 61.998,89.36 60.715,88.31 59.752,87.52 59.111,86.995 58.468,86.47 58.06,86.118 57.886,85.944 56.952,85.01 55.99,83.755 54.997,82.178 L 40.822,57.31 c -0.875,-1.459 -1.516,-2.918 -1.924,-4.38 -0.293,-0.875 -0.568,-2.231 -0.832,-4.069 -0.262,-1.84 0.189,-3.344 1.357,-4.51 0.232,-0.234 0.641,-0.525 1.225,-0.877 l -15.664,-27.406 0,0 z"
         id="path215" />
    </g>
  </g>
</svg>
