<?xml version="1.0" encoding="UTF-8" standalone="no"?>
<!-- Created with Inkscape (http://www.inkscape.org/) -->

<svg
   xmlns:dc="http://purl.org/dc/elements/1.1/"
   xmlns:cc="http://creativecommons.org/ns#"
   xmlns:rdf="http://www.w3.org/1999/02/22-rdf-syntax-ns#"
   xmlns:svg="http://www.w3.org/2000/svg"
   xmlns="http://www.w3.org/2000/svg"
   xmlns:sodipodi="http://sodipodi.sourceforge.net/DTD/sodipodi-0.dtd"
   xmlns:inkscape="http://www.inkscape.org/namespaces/inkscape"
   id="svg2"
   version="1.1"
   inkscape:version="0.48.4 r9939"
   width="512"
   height="512"
   sodipodi:docname="zzz.svg"
   viewBox="0 0 512 512">
  <metadata
     id="metadata8">
    <rdf:RDF>
      <cc:Work
         rdf:about="">
        <dc:format>image/svg+xml</dc:format>
        <dc:type
           rdf:resource="http://purl.org/dc/dcmitype/StillImage" />
        <dc:title></dc:title>
      </cc:Work>
    </rdf:RDF>
  </metadata>
  <defs
     id="defs6" />
  <sodipodi:namedview
     pagecolor="#ffffff"
     bordercolor="#666666"
     borderopacity="1"
     objecttolerance="10"
     gridtolerance="10"
     guidetolerance="10"
     inkscape:pageopacity="0"
     inkscape:pageshadow="2"
     inkscape:window-width="1366"
     inkscape:window-height="717"
     id="namedview4"
     showgrid="false"
     inkscape:zoom="0.75682523"
     inkscape:cx="375.97076"
     inkscape:cy="162.34541"
     inkscape:window-x="0"
     inkscape:window-y="0"
     inkscape:window-maximized="1"
     inkscape:current-layer="svg2"
     showguides="true"
     inkscape:guide-bbox="true"
     inkscape:document-units="px" />
  <path
     style="fill:#cccccc;fill-opacity:1;fill-rule:evenodd;stroke:none;stroke-width:1.02230215"
     d=""
     id="path3783"
     inkscape:connector-curvature="0" />
  <rect
     style="fill:#1a1a1a"
     id="rect3374"
     width="475"
     height="475"
     x="15"
     y="22"
     rx="89.375351" />
  <path
     sodipodi:type="arc"
     style="fill:#ffffff;fill-opacity:1;stroke:none;stroke-width:10;stroke-linecap:round;stroke-linejoin:round;stroke-miterlimit:4;stroke-opacity:1;stroke-dasharray:none"
     id="path2990"
     sodipodi:cx="268.22574"
     sodipodi:cy="270.86111"
     sodipodi:rx="186.30457"
     sodipodi:ry="192.25046"
     d="m 454.5303,270.86111 a 186.30457,192.25046 0 1 1 -372.609127,0 186.30457,192.25046 0 1 1 372.609127,0 z"
     transform="matrix(1.064994,0,0,1.0330919,-34.148575,-15.569859)" />
  <path
     sodipodi:type="arc"
     style="fill:#ff5555;fill-opacity:1;stroke:none"
     id="path2984-31"
     sodipodi:cx="225.94385"
     sodipodi:cy="177.04817"
     sodipodi:rx="73.993301"
     sodipodi:ry="68.047417"
     d="m 299.93715,177.04817 a 73.993301,68.047417 0 1 1 -147.9866,0 73.993301,68.047417 0 1 1 147.9866,0 z"
     transform="matrix(0.94603158,0,0,1.0286945,-23.481517,-20.27537)" />
  <path
     sodipodi:type="arc"
     style="fill:#ff2a2a;fill-opacity:1;stroke:none"
     id="path2984-1"
     sodipodi:cx="225.94385"
     sodipodi:cy="177.04817"
     sodipodi:rx="73.993301"
     sodipodi:ry="68.047417"
     d="m 299.93715,177.04817 a 73.993301,68.047417 0 1 1 -147.9866,0 73.993301,68.047417 0 1 1 147.9866,0 z"
     transform="matrix(0.94603158,0,0,1.0286945,-10.268427,-7.06228)" />
  <path
     sodipodi:type="arc"
     style="fill:#d40000;fill-opacity:1;stroke:none"
     id="path2984"
     sodipodi:cx="225.94385"
     sodipodi:cy="177.04817"
     sodipodi:rx="73.993301"
     sodipodi:ry="68.047417"
     d="m 299.93715,177.04817 a 73.993301,68.047417 0 1 1 -147.9866,0 73.993301,68.047417 0 1 1 147.9866,0 z"
     transform="matrix(0.94603158,0,0,1.0286945,1.5939852,6.1802069)" />
  <path
     sodipodi:type="arc"
     style="fill:#5599ff;fill-opacity:1;stroke:none"
     id="path2984-3-7"
     sodipodi:cx="225.94385"
     sodipodi:cy="177.04817"
     sodipodi:rx="73.993301"
     sodipodi:ry="68.047417"
     d="m 299.93715,177.04817 a 73.993301,68.047417 0 1 1 -147.9866,0 73.993301,68.047417 0 1 1 147.9866,0 z"
     transform="matrix(0.94603158,0,0,1.0286945,111.24998,174.87152)" />
  <path
     sodipodi:type="arc"
     style="fill:#0066ff;fill-opacity:1;stroke:none"
     id="path2984-3-2"
     sodipodi:cx="225.94385"
     sodipodi:cy="177.04817"
     sodipodi:rx="73.993301"
     sodipodi:ry="68.047417"
     d="m 299.93715,177.04817 a 73.993301,68.047417 0 1 1 -147.9866,0 73.993301,68.047417 0 1 1 147.9866,0 z"
     transform="matrix(0.94603158,0,0,1.0286945,101.24998,159.87152)" />
  <path
     sodipodi:type="arc"
     style="fill:#003380;fill-opacity:1;stroke:none"
     id="path2984-3"
     sodipodi:cx="225.94385"
     sodipodi:cy="177.04817"
     sodipodi:rx="73.993301"
     sodipodi:ry="68.047417"
     d="m 299.93715,177.04817 a 73.993301,68.047417 0 1 1 -147.9866,0 73.993301,68.047417 0 1 1 147.9866,0 z"
     transform="matrix(0.94603158,0,0,1.0286945,91.249985,144.87152)" />
</svg>
