<?xml version="1.0" encoding="UTF-8" standalone="no"?>
<!-- Created with Inkscape (http://www.inkscape.org/) -->

<svg
   xmlns:dc="http://purl.org/dc/elements/1.1/"
   xmlns:cc="http://creativecommons.org/ns#"
   xmlns:rdf="http://www.w3.org/1999/02/22-rdf-syntax-ns#"
   xmlns:svg="http://www.w3.org/2000/svg"
   xmlns="http://www.w3.org/2000/svg"
   xmlns:xlink="http://www.w3.org/1999/xlink"
   xmlns:sodipodi="http://sodipodi.sourceforge.net/DTD/sodipodi-0.dtd"
   xmlns:inkscape="http://www.inkscape.org/namespaces/inkscape"
   id="svg2"
   version="1.1"
   inkscape:version="0.91 r13725"
   width="512"
   height="512"
   sodipodi:docname="pisido.svg"
   viewBox="0 0 512 512">
  <metadata
     id="metadata8">
    <rdf:RDF>
      <cc:Work
         rdf:about="">
        <dc:format>image/svg+xml</dc:format>
        <dc:type
           rdf:resource="http://purl.org/dc/dcmitype/StillImage" />
        <dc:title />
      </cc:Work>
    </rdf:RDF>
  </metadata>
  <defs
     id="defs6">
    <linearGradient
       id="linearGradient3764"
       x1="1"
       x2="47"
       gradientUnits="userSpaceOnUse"
       gradientTransform="matrix(0,-1,1,0,-1.5e-6,47.999998)">
      <stop
         stop-color="#32a2f8"
         stop-opacity="1"
         id="stop7" />
      <stop
         offset="1"
         stop-color="#45a9f9"
         stop-opacity="1"
         id="stop9" />
    </linearGradient>
    <linearGradient
       inkscape:collect="always"
       xlink:href="#linearGradient3764"
       id="linearGradient3820"
       gradientUnits="userSpaceOnUse"
       x1="11.994687"
       y1="24.005501"
       x2="36"
       y2="24.005501" />
    <linearGradient
       id="linearGradient3012"
       x1="1"
       x2="47"
       gradientUnits="userSpaceOnUse"
       gradientTransform="matrix(0,-1,1,0,-1.5e-6,47.999998)">
      <stop
         stop-color="#32a2f8"
         stop-opacity="1"
         id="stop3014" />
      <stop
         offset="1"
         stop-color="#45a9f9"
         stop-opacity="1"
         id="stop3016" />
    </linearGradient>
    <clipPath
       id="clipPath-121880098">
      <g
         transform="translate(0,-1004.3622)"
         id="g17">
        <path
           style="fill:#1890d0"
           inkscape:connector-curvature="0"
           d="m -24,13 c 0,1.105 -0.672,2 -1.5,2 -0.828,0 -1.5,-0.895 -1.5,-2 0,-1.105 0.672,-2 1.5,-2 0.828,0 1.5,0.895 1.5,2 z"
           transform="matrix(15.333333,0,0,11.5,414.99999,878.8622)"
           id="path19" />
      </g>
    </clipPath>
    <linearGradient
       id="linearGradient3022"
       x1="1"
       x2="47"
       gradientUnits="userSpaceOnUse"
       gradientTransform="matrix(0,-1,1,0,-1.5e-6,47.999998)">
      <stop
         stop-color="#32a2f8"
         stop-opacity="1"
         id="stop3024" />
      <stop
         offset="1"
         stop-color="#45a9f9"
         stop-opacity="1"
         id="stop3026" />
    </linearGradient>
    <linearGradient
       id="linearGradient3029"
       x1="1"
       x2="47"
       gradientUnits="userSpaceOnUse"
       gradientTransform="matrix(0,-1,1,0,-1.5e-6,47.999998)">
      <stop
         stop-color="#32a2f8"
         stop-opacity="1"
         id="stop3031" />
      <stop
         offset="1"
         stop-color="#45a9f9"
         stop-opacity="1"
         id="stop3033" />
    </linearGradient>
  </defs>
  <sodipodi:namedview
     pagecolor="#ffffff"
     bordercolor="#666666"
     borderopacity="1"
     objecttolerance="10"
     gridtolerance="10"
     guidetolerance="10"
     inkscape:pageopacity="0"
     inkscape:pageshadow="2"
     inkscape:window-width="1366"
     inkscape:window-height="725"
     id="namedview4"
     showgrid="false"
     inkscape:zoom="0.53515625"
     inkscape:cx="637.43792"
     inkscape:cy="342.96781"
     inkscape:window-x="-5"
     inkscape:window-y="-10"
     inkscape:window-maximized="1"
     inkscape:current-layer="svg2"
     showguides="false"
     inkscape:guide-bbox="true"
     inkscape:document-units="px" />
  <path
     style="fill:#cccccc;fill-opacity:1;fill-rule:evenodd;stroke:none;stroke-width:1.02230215"
     d=""
     id="path3783"
     inkscape:connector-curvature="0" />
  <path
     style="fill:#3daee9;fill-opacity:1;fill-rule:evenodd;stroke:#000000;stroke-width:5.65416574;stroke-linecap:butt;stroke-linejoin:miter;stroke-miterlimit:4;stroke-dasharray:none;stroke-opacity:1"
     d="M 256.75477,442.25094 492.83522,293.58002 490.59394,123.2435 256.00768,235.307 19.180148,131.4615 l 0,177.80741 z"
     id="path3399"
     inkscape:connector-curvature="0" />
  <path
     style="fill:none;fill-rule:evenodd;stroke:#000000;stroke-width:5.65416574;stroke-linecap:butt;stroke-linejoin:miter;stroke-miterlimit:4;stroke-dasharray:none;stroke-opacity:1"
     d="m 256.00768,439.26258 c 0.13811,-68.73304 -0.3919,-135.81998 0,-202.02377"
     id="path4201"
     inkscape:connector-curvature="0"
     sodipodi:nodetypes="cc" />
  <path
     style="fill:#3daee9;fill-opacity:1;fill-rule:evenodd;stroke:#000000;stroke-width:5.65416574;stroke-linecap:butt;stroke-linejoin:miter;stroke-miterlimit:4;stroke-dasharray:none;stroke-opacity:1"
     d="M 241.30714,133.63743 C 211.5478,114.97181 178.09055,99.475811 152.02911,77.640549 202.39108,82.395 225.81116,72.357827 260.32496,60.207557 L 415.10877,104.58245 367.03598,179.59713 255.04224,236.65055 19.43273,131.52434 Z"
     id="path4207"
     inkscape:connector-curvature="0"
     sodipodi:nodetypes="cccccccc" />
  <path
     style="fill:#3daee9;fill-opacity:1;fill-rule:evenodd;stroke:#000000;stroke-width:5.65416574;stroke-linecap:butt;stroke-linejoin:miter;stroke-miterlimit:4;stroke-dasharray:none;stroke-opacity:1"
     d="m 490.65173,122.54371 c -47.72061,-13.3829 -92.27158,-14.61553 -132.0681,-46.487979 -28.17454,22.891809 -65.85797,42.613979 -119.38957,59.166509 38.73998,14.79163 80.64958,20.07435 120.97438,30.11153 -22.36352,27.99844 -63.74487,48.07279 -105.1262,69.73197 z"
     id="path4203"
     inkscape:connector-curvature="0"
     sodipodi:nodetypes="cccccc" />
  <path
     style="fill:#3daee9;fill-opacity:1;fill-rule:evenodd;stroke:#000000;stroke-width:5.65416574;stroke-linecap:butt;stroke-linejoin:miter;stroke-miterlimit:4;stroke-dasharray:none;stroke-opacity:1"
     d="M 256.09877,235.06574 25.243728,128.35471 167.34901,89.262539 C 191.47345,107.2238 218.76752,116.73271 244.47678,130.4678 211.7239,147.72469 174.21655,157.58578 131.95475,163.22069 94.095224,152.47914 58.877071,142.79415 21.54582,128.88298"
     id="path4205"
     inkscape:connector-curvature="0"
     sodipodi:nodetypes="cccccc" />
  <path
     style="fill:#ffffff;fill-opacity:1;fill-rule:evenodd;stroke:none;stroke-width:1.13083315px;stroke-linecap:butt;stroke-linejoin:miter;stroke-opacity:1"
     d="m 270.54166,368.68756 c 57.22951,-66.91451 84.3475,-119.56566 122.5592,-197.57389 -11.4459,38.03562 -25.53316,72.9016 -43.84661,109.3524 -22.01135,32.04852 -48.77715,60.39914 -78.71259,88.22149 z"
     id="path4209"
     inkscape:connector-curvature="0"
     sodipodi:nodetypes="cccc" />
  <path
     style="fill:#ffffff;fill-opacity:1;fill-rule:evenodd;stroke:none;stroke-width:1.13083315px;stroke-linecap:butt;stroke-linejoin:miter;stroke-opacity:1"
     d="m 306.73571,375.84828 c 57.22952,-66.91451 84.3475,-119.56566 122.55921,-197.57389 -11.4459,38.03562 -25.53316,72.90159 -43.84661,109.35239 -22.01135,32.04852 -48.77716,60.39914 -78.7126,88.2215 z"
     id="path4209-2"
     inkscape:connector-curvature="0"
     sodipodi:nodetypes="cccc" />
  <path
     style="fill:#ffffff;fill-opacity:1;fill-rule:evenodd;stroke:none;stroke-width:1.13083315px;stroke-linecap:butt;stroke-linejoin:miter;stroke-opacity:1"
     d="m 335.12514,387.80172 c 57.22951,-66.91451 84.3475,-119.56566 122.55919,-197.57389 -11.4459,38.03562 -25.53316,72.90159 -43.8466,109.35239 -22.01136,32.04853 -48.77716,60.39915 -78.71259,88.2215 z"
     id="path4209-5"
     inkscape:connector-curvature="0"
     sodipodi:nodetypes="cccc" />
  <path
     d="m 177.50608,239.895 c 0,0 12.44684,-8.16862 36.89871,-1.429 0,0 0.84587,40.14675 -21.41831,49.762 -3.34033,-16.95475 -5.70891,-32.95478 -15.4804,-48.333 z"
     id="path19-7"
     style="fill:none;stroke:#ffffff;stroke-width:6;stroke-miterlimit:4;stroke-dasharray:none;stroke-opacity:1"
     inkscape:connector-curvature="0"
     sodipodi:nodetypes="cccc" />
  <path
     inkscape:connector-curvature="0"
     d="m 116.026,335.3779 c 28.80707,10.38995 60.21076,4.73642 78.20864,-19.1109 1.37068,-29.85379 -8.26558,-84.55246 -37.07265,-94.9424 -28.7989,-10.387 -67.944665,16.71701 -85.940906,40.5744 -1.372755,29.84493 16.006013,63.0919 44.804916,73.4789 z"
     id="path30"
     style="fill:none;stroke:#ffffff;stroke-width:6;stroke-miterlimit:4;stroke-dasharray:none;stroke-opacity:1"
     sodipodi:nodetypes="scscs" />
  <g
     transform="matrix(1.1670341,0.42091814,-0.43230503,1.1986053,89.533978,174.81628)"
     id="g32"
     style="stroke-width:0.07132358;stroke-miterlimit:4;stroke-dasharray:none">
    <g
       id="g34"
       style="stroke-width:0.07132358;stroke-miterlimit:4;stroke-dasharray:none"
       transform="matrix(0.8910504,0,0,0.8910504,5.9081343,10.532379)">
      <g
         id="g36"
         style="stroke-width:0.07132358;stroke-miterlimit:4;stroke-dasharray:none">
        <line
           style="fill:none;stroke-width:0.07132358;stroke-miterlimit:4;stroke-dasharray:none"
           x1="45.942001"
           y1="92.757004"
           x2="17.620001"
           y2="114.775"
           id="line38" />
        <linearGradient
           id="SVGID_4_"
           gradientUnits="userSpaceOnUse"
           x1="16.9111"
           y1="103.7656"
           x2="46.650902"
           y2="103.7656">
          <stop
             offset="0"
             style="stop-color:#EC008C"
             id="stop41" />
          <stop
             offset="1"
             style="stop-color:#C4008C"
             id="stop43" />
        </linearGradient>
        <path
           inkscape:connector-curvature="0"
           d="m 45.558,92.045 -28.323,22.019 c -0.328,0.258 -0.423,0.778 -0.208,1.176 0.213,0.392 0.65,0.502 0.978,0.246 L 46.327,93.47 c 0.329,-0.256 0.423,-0.783 0.209,-1.178 -0.212,-0.391 -0.651,-0.502 -0.978,-0.247 z"
           id="path45"
           style="fill:#ffffff;fill-opacity:1;stroke-width:0.07132358;stroke-miterlimit:4;stroke-dasharray:none" />
      </g>
      <g
         id="g47"
         style="stroke-width:0.07132358;stroke-miterlimit:4;stroke-dasharray:none">
        <line
           style="fill:none;stroke-width:0.07132358;stroke-miterlimit:4;stroke-dasharray:none"
           x1="52.318001"
           y1="93.602997"
           x2="23.992001"
           y2="115.626"
           id="line49" />
        <linearGradient
           id="SVGID_5_"
           gradientUnits="userSpaceOnUse"
           x1="23.283199"
           y1="104.6143"
           x2="53.023399"
           y2="104.6143">
          <stop
             offset="0"
             style="stop-color:#EC008C"
             id="stop52" />
          <stop
             offset="1"
             style="stop-color:#C4008C"
             id="stop54" />
        </linearGradient>
        <path
           inkscape:connector-curvature="0"
           d="m 51.93,92.896 -28.325,22.016 c -0.329,0.253 -0.42,0.779 -0.206,1.174 0.211,0.395 0.651,0.506 0.978,0.253 L 52.701,94.313 c 0.328,-0.255 0.422,-0.779 0.208,-1.176 -0.215,-0.39 -0.65,-0.501 -0.979,-0.241 z"
           id="path56"
           style="fill:#ffffff;fill-opacity:1;stroke-width:0.07132358;stroke-miterlimit:4;stroke-dasharray:none" />
      </g>
    </g>
    <g
       id="g58"
       style="stroke-width:0.07132358;stroke-miterlimit:4;stroke-dasharray:none">
      <g
         id="g60"
         style="stroke-width:0.07132358;stroke-miterlimit:4;stroke-dasharray:none">
        <line
           style="fill:none;stroke-width:0.07132358;stroke-miterlimit:4;stroke-dasharray:none"
           x1="82.056"
           y1="92.757004"
           x2="110.378"
           y2="114.775"
           id="line62" />
        <linearGradient
           id="SVGID_6_"
           gradientUnits="userSpaceOnUse"
           x1="81.346703"
           y1="103.7656"
           x2="111.0859"
           y2="103.7656">
          <stop
             offset="0"
             style="stop-color:#EC008C"
             id="stop65" />
          <stop
             offset="1"
             style="stop-color:#C4008C"
             id="stop67" />
        </linearGradient>
        <path
           inkscape:connector-curvature="0"
           d="m 82.44,92.045 28.324,22.019 c 0.327,0.258 0.42,0.778 0.207,1.176 -0.211,0.392 -0.65,0.502 -0.979,0.246 L 81.671,93.47 c -0.328,-0.256 -0.424,-0.783 -0.209,-1.178 0.215,-0.391 0.654,-0.502 0.978,-0.247 z"
           id="path69"
           style="fill:#ffffff;fill-opacity:1;stroke-width:0.07132358;stroke-miterlimit:4;stroke-dasharray:none" />
      </g>
      <g
         id="g71"
         style="stroke-width:0.07132358;stroke-miterlimit:4;stroke-dasharray:none">
        <line
           style="fill:none;stroke-width:0.07132358;stroke-miterlimit:4;stroke-dasharray:none"
           x1="75.682999"
           y1="93.602997"
           x2="104.005"
           y2="115.626"
           id="line73" />
        <linearGradient
           id="SVGID_7_"
           gradientUnits="userSpaceOnUse"
           x1="74.973602"
           y1="104.6133"
           x2="104.7119"
           y2="104.6133">
          <stop
             offset="0"
             style="stop-color:#EC008C"
             id="stop76" />
          <stop
             offset="1"
             style="stop-color:#C4008C"
             id="stop78" />
        </linearGradient>
        <path
           inkscape:connector-curvature="0"
           d="m 76.067,92.896 28.323,22.016 c 0.325,0.253 0.42,0.779 0.208,1.174 -0.217,0.392 -0.652,0.506 -0.979,0.253 L 75.298,94.312 c -0.328,-0.255 -0.424,-0.779 -0.209,-1.176 0.215,-0.389 0.654,-0.5 0.978,-0.24 z"
           id="path80"
           style="fill:#ffffff;fill-opacity:1;stroke-width:0.07132358;stroke-miterlimit:4;stroke-dasharray:none" />
      </g>
    </g>
  </g>
  <line
     x1="123.12749"
     y1="315.69928"
     x2="119.59773"
     y2="325.48587"
     id="line86"
     style="fill:none;stroke:#ffffff;stroke-width:2.68488097;stroke-miterlimit:4;stroke-dasharray:none;stroke-opacity:1" />
  <path
     inkscape:connector-curvature="0"
     d="m 131.58182,222.60264 c -2.2686,0.39543 -6.27158,1.64311 -6.27158,1.64311 l 6.89142,33.37282 6.07595,-35.84233 c 0,0 -4.26136,0.40271 -6.69579,0.8264 z"
     id="path93"
     style="fill:none;stroke:#ffffff;stroke-width:5;stroke-miterlimit:4;stroke-dasharray:none;stroke-opacity:1" />
  <path
     inkscape:connector-curvature="0"
     d="m 153.61585,221.54698 c -3.45219,-0.82793 -6.82377,-0.89939 -6.82377,-0.89939 l -3.19903,34.99986 14.75141,-32.44918 c -0.001,6e-4 -1.27685,-0.82218 -4.72862,-1.65127 z"
     id="path100"
     style="fill:none;stroke:#ffffff;stroke-width:5;stroke-miterlimit:4;stroke-dasharray:none;stroke-opacity:1" />
  <ellipse
     cx="198.95728"
     cy="225.51939"
     id="circle107"
     style="fill:#ffffff;fill-opacity:1;stroke-width:1.00100005;stroke-miterlimit:4;stroke-dasharray:none"
     rx="6.1423149"
     ry="6.3084803"
     transform="matrix(0.94068537,0.33928018,-0.33928018,0.94068537,0,0)" />
  <ellipse
     cx="246.82784"
     cy="225.51939"
     id="circle114"
     style="fill:#ffffff;fill-opacity:1;stroke-width:1.00100005;stroke-miterlimit:4;stroke-dasharray:none"
     rx="6.1423149"
     ry="6.3084803"
     transform="matrix(0.94068537,0.33928018,-0.33928018,0.94068537,0,0)" />
  <path
     d="m 102.24366,266.92169 -1.14418,-0.093 -0.55826,1.02856 c -3.97308,7.33351 -4.754162,13.56164 -2.334858,18.52219 3.829658,7.83692 14.194208,9.27109 14.631898,9.33007 l 1.14033,0.15122 0.6048,-1.00771 c 4.63884,-7.62165 5.75942,-14.01586 3.33756,-18.99492 -3.86449,-7.91587 -15.19453,-8.89638 -15.67729,-8.93641 z m 12.51894,10.59572 c 1.22705,2.5326 1.16416,5.6944 -0.19241,9.45563 -0.55508,1.53901 -1.38279,3.2086 -2.37685,4.94823 -2.52294,-0.56319 -8.48793,-2.37733 -10.83168,-7.20361 -1.390898,-2.85718 -1.32696,-6.41685 0.18783,-10.61676 0.39037,-1.08234 0.97444,-2.25195 1.56374,-3.42508 2.66648,0.43211 9.27449,1.95532 11.64937,6.84159 z"
     id="path116"
     style="fill:#ffffff;fill-opacity:1;stroke-width:1.00100005;stroke-miterlimit:4;stroke-dasharray:none"
     inkscape:connector-curvature="0" />
  <path
     d="m 153.1556,288.06538 c -5.046,2.28562 -8.2617,7.92145 -9.55682,16.75588 l -0.17286,1.15943 0.96966,0.6098 c 0.37368,0.23641 9.26828,5.74982 17.21837,2.15881 5.03134,-2.27057 8.40454,-7.56787 10.02432,-15.74472 l 0.22767,-1.15051 -0.94044,-0.66156 c -0.39017,-0.27483 -9.74349,-6.75425 -17.7699,-3.12713 z m -4.51257,10.6905 c 1.35355,-3.75283 3.32436,-6.23327 5.8855,-7.39957 4.94796,-2.24783 11.00841,0.80084 13.3364,2.17146 -0.29784,1.27556 -0.59772,2.55308 -0.98722,3.63303 -1.5148,4.1999 -3.73701,6.98249 -6.6287,8.2937 -4.88662,2.21306 -10.63295,-0.1927 -12.93964,-1.37007 0.35178,-1.96992 0.77772,-3.78714 1.33366,-5.32855 z"
     id="path118"
     style="fill:#ffffff;fill-opacity:1;stroke-width:1.00100005;stroke-miterlimit:4;stroke-dasharray:none"
     inkscape:connector-curvature="0" />
  <g
     transform="matrix(1.1670341,0.42091814,-0.43230503,1.1986053,89.533978,174.81628)"
     id="g120"
     style="stroke-width:0.07132358;stroke-miterlimit:4;stroke-dasharray:none">
    <path
       inkscape:connector-curvature="0"
       d="m 61.447,97.878 c 1.404,1.677 3.7,1.677 5.101,0 L 72.9,90.282 c 0.246,-0.298 0.438,-0.579 0.568,-0.852 -2.842,-0.854 -6.055,-1.338 -9.464,-1.338 -3.409,0 -6.628,0.484 -9.466,1.338 0.133,0.272 0.315,0.558 0.565,0.852 l 6.344,7.596 z"
       id="path122"
       style="fill:#ffffff;fill-opacity:1;stroke-width:0.07132358;stroke-miterlimit:4;stroke-dasharray:none" />
  </g>
  <path
     d="m 127.48786,219.52377 c 0,0 -3.44805,-14.79806 -24.83125,-24.43335 0,0 -22.527803,25.94239 -12.355227,45.928 12.385167,-10.09699 21.154027,-16.31579 37.186477,-21.49465 z"
     id="path19-8"
     style="fill:none;stroke:#ffffff;stroke-width:5.54819965;stroke-miterlimit:4;stroke-dasharray:none;stroke-opacity:1"
     inkscape:connector-curvature="0"
     sodipodi:nodetypes="cccc" />
</svg>
