<?xml version="1.0" encoding="UTF-8" standalone="no"?>
<!-- Created with Inkscape (http://www.inkscape.org/) -->

<svg
   xmlns:dc="http://purl.org/dc/elements/1.1/"
   xmlns:cc="http://creativecommons.org/ns#"
   xmlns:rdf="http://www.w3.org/1999/02/22-rdf-syntax-ns#"
   xmlns:svg="http://www.w3.org/2000/svg"
   xmlns="http://www.w3.org/2000/svg"
   xmlns:sodipodi="http://sodipodi.sourceforge.net/DTD/sodipodi-0.dtd"
   xmlns:inkscape="http://www.inkscape.org/namespaces/inkscape"
   id="svg2"
   version="1.1"
   inkscape:version="0.48.5 r10040"
   width="512"
   height="512"
   viewBox="0 0 512 512"
   sodipodi:docname="user-trash-full.svg">
  <metadata
     id="metadata8">
    <rdf:RDF>
      <cc:Work
         rdf:about="">
        <dc:format>image/svg+xml</dc:format>
        <dc:type
           rdf:resource="http://purl.org/dc/dcmitype/StillImage" />
        <dc:title />
      </cc:Work>
    </rdf:RDF>
  </metadata>
  <defs
     id="defs6" />
  <sodipodi:namedview
     pagecolor="#ffffff"
     bordercolor="#666666"
     borderopacity="1"
     objecttolerance="10"
     gridtolerance="10"
     guidetolerance="10"
     inkscape:pageopacity="0"
     inkscape:pageshadow="2"
     inkscape:window-width="1366"
     inkscape:window-height="712"
     id="namedview4"
     showgrid="false"
     inkscape:zoom="0.5"
     inkscape:cx="748.4319"
     inkscape:cy="220.1635"
     inkscape:window-x="0"
     inkscape:window-y="27"
     inkscape:window-maximized="1"
     inkscape:current-layer="svg2" />
  <path
     inkscape:connector-curvature="0"
     id="path3348"
     d="m 236.83498,480.5103 c -49.22934,-3.37491 -89.30865,-16.81931 -106.62587,-35.7671 -6.16601,-6.74658 -7.83487,-10.35967 -9.66213,-20.91849 -5.04287,-29.14008 -54.592259,-295.72862 -55.887949,-300.69166 -8.87147,-33.981369 27.3269,-64.759097 95.995349,-81.620217 15.726,-3.86142 39.62135,-7.685376 58.58322,-9.375036 17.02485,-1.51706 56.5397,-1.51706 73.56454,0 83.07117,7.402326 145.25639,36.036866 154.62669,71.201223 1.80936,6.79012 1.65516,11.98 -0.63493,21.36921 -2.47721,10.15641 -55.9057,299.75001 -55.9057,303.02065 0,1.32759 -1.35327,5.12192 -3.00727,8.43186 -8.39357,16.79703 -36.53718,31.68245 -74.54624,39.4282 -21.15552,4.31122 -54.29844,6.44337 -76.49971,4.92136 z"
     style="fill:#3daee9;stroke-width:0.78468841;fill-opacity:1" />
  <path
     inkscape:connector-curvature="0"
     id="path3340"
     d="M 233.863,170.88645 C 173.95417,167.8998 118.59366,151.30799 94.687161,129.17478 c -6.06681,-5.61678 -10.90309,-13.62866 -10.88624,-18.03433 0.0285,-7.45624 9.1972,-18.598159 22.059779,-26.807429 55.04782,-35.133068 168.96243,-44.488868 252.46814,-20.735208 28.84467,8.20503 50.63946,19.384798 62.67902,32.151598 8.14001,8.631689 9.67486,14.108749 6.13729,21.900669 -8.31182,18.30778 -45.32409,36.94796 -91.89452,46.28004 -18.74518,3.75629 -36.59101,5.88895 -58.70104,7.01503 -19.35318,0.98568 -21.80506,0.98231 -42.68659,-0.0586 z"
     style="fill:#cccccc;stroke-width:0.78468841" />
  <path
     style="fill:#00ccff;fill-opacity:1;stroke:none"
     d="M 128.73494,149.98426 C 97.139062,133.39224 93.412089,132.6562 93.005348,117.80503 92.824414,111.19834 92.577666,104.68922 92.457039,103.34034 92.176446,100.2026 161.19221,51.236608 166.11617,51.079924 c 2.03245,-0.06473 6.33936,0.887665 9.57092,2.11629 l 5.87554,2.233891 -5.70867,7.08731 c -23.27105,28.890895 -36.46198,47.527235 -36.46198,51.513995 0,2.57278 3.46724,12.28616 7.70499,21.58528 4.23775,9.29912 7.43785,24.24571 7.11131,24.57223 -0.32651,0.32653 -11.82614,-3.03808 -25.47334,-10.20466 z"
     id="path3370"
     inkscape:connector-curvature="0"
     sodipodi:nodetypes="ssscscssscs" />
  <path
     style="fill:#1ba39c;fill-opacity:0.99607843;stroke:none"
     d="m 374.90657,135.85294 c 0,-6.37847 -6.32317,-16.26308 -22.95631,-35.886396 -25.79603,-30.433272 -26.18478,-28.705974 7.53561,-33.475431 14.75152,-2.086463 16.64894,-1.572019 25.27587,6.853109 16.76631,16.373887 42.38048,48.886198 38.37652,51.312488 -4.33457,9.35688 -42.31219,28.22723 -46.65575,28.22723 -1.75746,0 -1.57594,-12.18923 -1.57594,-17.031 z"
     id="path3374"
     inkscape:connector-curvature="0"
     sodipodi:nodetypes="sssscss" />
  <path
     style="fill:#006680;fill-opacity:1;stroke:none"
     d="m 204.40141,168.79781 c -20.28427,-2.47901 -56.58655,-9.63505 -61.8545,-10.87058 -4.89074,-1.14708 -6.11137,-5.33858 -10.95584,-18.12007 -3.21258,-8.47601 -5.84108,-16.20862 -5.84108,-17.18358 0,-1.74537 24.21963,-34.782725 43.89847,-59.88074 5.53304,-7.056722 11.36245,-12.8489 12.95427,-12.871498 4.11589,-0.05843 76.72169,9.266117 81.83482,10.509806 2.84216,0.691307 5.45969,3.888038 7.90737,9.657068 2.01236,4.743027 4.80896,9.083824 6.21465,9.64622 1.40569,0.562387 12.74761,-1.20491 25.20426,-3.927332 12.45664,-2.722424 24.29361,-4.949863 26.30437,-4.949863 4.55561,0 62.73081,63.626989 62.73081,68.609549 0,4.04835 -0.28309,7.73804 -5.20507,9.46762 -4.66571,1.63952 -12.46149,4.88443 -23.14602,7.6333 -37.91255,9.75395 -58.70379,14.12286 -109.44123,14.72921 -25.65316,0.30657 -47.08426,-2.0188 -50.60528,-2.44911 z"
     id="path3361"
     inkscape:connector-curvature="0"
     sodipodi:nodetypes="ssssssssssssssss" />
  <g
     transform="matrix(4.7136512,0,0,4.7136512,-43.3243,-73.618017)"
     id="g20"
     style="fill:#ffffff">
    <linearGradient
       id="SVGID_2_"
       gradientUnits="userSpaceOnUse"
       x1="64.779297"
       y1="89.454102"
       x2="81.225601"
       y2="89.454102">
      <stop
         offset="0"
         style="stop-color:#80C11B"
         id="stop23" />
      <stop
         offset="1"
         style="stop-color:#80E21B"
         id="stop25" />
    </linearGradient>
    <path
       inkscape:connector-curvature="0"
       d="m 68.818,87.321 -4.039,7.105 4.105,7.037 -0.016,-3.096 3.416,-0.063 c 2.135,-0.059 3.303,-1.699 3.303,-1.699 l 5.166,-8.844 c 1.104,-2.484 -0.076,-4.172 -0.076,-4.172 l -3.594,-6.146 -7.104,4.107 4.563,7.889 c 0.168,0.416 -0.1,0.754 -0.596,0.746 l -5.107,0.035 -0.021,-2.899 0,0 z"
       id="path27"
       style="fill:#ffffff;stroke:#ffffff;stroke-opacity:1" />
    <linearGradient
       id="SVGID_3_"
       gradientUnits="userSpaceOnUse"
       x1="46.181198"
       y1="88.808601"
       x2="62.918499"
       y2="88.808601">
      <stop
         offset="0"
         style="stop-color:#80C11B"
         id="stop30" />
      <stop
         offset="1"
         style="stop-color:#80E21B"
         id="stop32" />
    </linearGradient>
    <path
       inkscape:connector-curvature="0"
       d="m 58.476,86.259 -4.15,-7.043 -8.145,0.055 2.689,1.529 -1.651,2.99 c -1.013,1.881 -0.17,3.711 -0.17,3.711 l 5.096,8.885 c 1.604,2.197 3.656,2.011 3.656,2.011 l 7.118,-0.05 -0.024,-8.207 -9.112,0.027 C 53.34,90.104 53.179,89.706 53.432,89.278 l 2.515,-4.447 2.529,1.428 0,0 z"
       id="path34"
       style="fill:#ffffff;stroke:#ffffff;stroke-opacity:1" />
    <linearGradient
       id="SVGID_4_"
       gradientUnits="userSpaceOnUse"
       x1="51.8843"
       y1="73.499001"
       x2="76.783203"
       y2="73.499001">
      <stop
         offset="0"
         style="stop-color:#80C11B"
         id="stop37" />
      <stop
         offset="1"
         style="stop-color:#80E21B"
         id="stop39" />
    </linearGradient>
    <path
       inkscape:connector-curvature="0"
       d="m 64.572,77.841 8.174,-0.063 4.037,-7.074 -2.672,1.561 -1.762,-2.928 C 71.232,67.519 69.224,67.329 69.224,67.329 L 58.981,67.282 c -2.707,0.287 -3.573,2.154 -3.573,2.154 l -3.524,6.188 7.111,4.092 4.546,-7.896 c 0.276,-0.354 0.701,-0.291 0.944,0.145 l 2.588,4.402 -2.501,1.474 0,0 z"
       id="path41"
       style="fill:#ffffff;stroke:#ffffff;stroke-opacity:1" />
  </g>
</svg>
